<?xml version="1.0" encoding="UTF-8"?><svg version="1.1" width="14px" height="16px" viewBox="0 0 14.0 16.0" xmlns="http://www.w3.org/2000/svg" xmlns:xlink="http://www.w3.org/1999/xlink"><defs><clipPath id="i0"><path d="M10.9673591,0 C11.347181,0 11.6716123,0.138476756 11.9406528,0.415430267 C12.2096934,0.692383778 12.3442136,1.01285856 12.3442136,1.3768546 L12.3442136,16 L6.17210682,13.3412463 L0,16 L0,1.3768546 C0,1.01285856 0.134520277,0.692383778 0.403560831,0.415430267 C0.672601385,0.138476756 0.997032641,0 1.3768546,0 L10.9673591,0 Z M10.9673591,1.09198813 L1.3768546,1.09198813 C1.29772502,1.09198813 1.22650841,1.11968348 1.16320475,1.17507418 C1.09990109,1.23046489 1.06824926,1.29772502 1.06824926,1.3768546 L1.06824926,14.3620178 L6.17210682,12.1780415 L11.2759644,14.3620178 L11.2759644,1.3768546 C11.2759644,1.29772502 11.2443126,1.23046489 11.1810089,1.17507418 C11.1177052,1.11968348 11.0464886,1.09198813 10.9673591,1.09198813 Z"></path></clipPath></defs><g transform="translate(-5.0 -4.0)"><g transform="translate(5.827893175075606 4.0)"><g clip-path="url(#i0)"><polygon points="0,0 12.3442136,0 12.3442136,16 0,16 0,0" stroke="none" fill="#FFFFFF"></polygon></g></g></g></svg>