<?xml version="1.0" encoding="UTF-8"?>
<svg width="16px" height="16px" viewBox="0 0 16 16" version="1.1" xmlns="http://www.w3.org/2000/svg" xmlns:xlink="http://www.w3.org/1999/xlink">
    <title>4295F24C-F799-4A49-8EAD-7D19D10C34D2</title>
    <g id="assets" stroke="none" stroke-width="1" fill="none" fill-rule="evenodd">
        <g id="Assets" transform="translate(-3307.000000, -1509.000000)" fill="#3C3C3C" fill-rule="nonzero">
            <g id="file_upload_FILL0_wght400_GRAD0_opsz48" transform="translate(3307.000000, 1509.000000)">
                <path d="M1.5,16 C1.1,16 0.75,15.85 0.45,15.55 C0.15,15.25 0,14.9 0,14.5 L0,10.925 L1.5,10.925 L1.5,14.5 L14.5,14.5 L14.5,10.925 L16,10.925 L16,14.5 C16,14.9 15.85,15.25 15.55,15.55 C15.25,15.85 14.9,16 14.5,16 L1.5,16 Z M7.25,12.175 L7.25,2.9 L4.25,5.9 L3.175,4.825 L8,0 L12.825,4.825 L11.75,5.9 L8.75,2.9 L8.75,12.175 L7.25,12.175 Z" id="Shape"></path>
            </g>
        </g>
    </g>
</svg>