<svg width="1302" height="705" viewBox="0 0 1302 705" xmlns="http://www.w3.org/2000/svg">
    <g fill="none" fill-rule="evenodd">
        <path d="M227.24 327.934C131.55 211.851 195.62 68.71 312.344 0c-8.54 65.639 16.583 114.015 51.699 148.724 70.974 70.176 245.224 106.067 409.195.135 38.447-24.815 76.215-69.566 103.97-100.48 20.76 127.4-48.701 244.72-183.544 331.823C520.988 491.746 327.44 449.49 227.24 327.934" fill="#83878B" opacity=".045" style="mix-blend-mode:multiply" transform="translate(.17)"/>
        <path d="M50.24 580.934C-45.45 464.851 18.62 321.71 135.344 253c-8.54 65.639 16.583 114.015 51.699 148.724 70.974 70.176 245.224 106.067 409.195.135 38.447-24.815 76.215-69.566 103.97-100.48 20.76 127.4-48.701 244.72-183.544 331.823C343.988 744.746 150.44 702.49 50.24 580.934" fill="#83878B" opacity=".07" style="mix-blend-mode:multiply" transform="rotate(-179 353.915 475.5)"/>
        <path d="M759.162 111.73c-6.564 50.446 12.745 87.625 39.733 114.3 54.546 53.933 188.464 81.517 314.483.105 29.548-19.072 42.708-19.5 84.377-34.09 15.956 97.912-41.901 144.943-145.533 211.885-132.71 85.726-281.459 53.252-358.467-40.17-73.54-89.214-24.3-199.224 65.407-252.03z" fill="#83878B" opacity=".07" style="mix-blend-mode:multiply" transform="rotate(-162 929.318 282.717)"/>
        <path d="M719.625 174.125c18.107 63.92 60.398 98.858 106.486 117.307 93.161 37.309 267.905 2.956 377.054-158.376C1228.766 95.25 1245.853 39.296 1259.19 0c69.544 109.601 51.975 244.84-37.788 377.502-114.948 169.886-309.99 205.837-450.411 132.404-134.098-70.127-131.716-227.122-51.366-335.781z" fill="#9A9EA2" opacity=".07" style="mix-blend-mode:multiply" transform="translate(.17)"/>
    </g>
</svg>
