<?xml version="1.0" encoding="UTF-8"?>
<svg width="21.506267px" height="17.7436329px" viewBox="0 0 21.506267 17.7436329" version="1.1" xmlns="http://www.w3.org/2000/svg" xmlns:xlink="http://www.w3.org/1999/xlink">
    <title>Twitter Icon Hover</title>
    <defs>
        <linearGradient x1="1.45015705e-13%" y1="82.9822085%" x2="100%" y2="17.0177915%" id="linearGradient-1">
            <stop stop-color="#851AFF" offset="0%"></stop>
            <stop stop-color="#4E18FF" offset="22.4291475%"></stop>
            <stop stop-color="#4317FF" offset="37.4766566%"></stop>
            <stop stop-color="#4913FF" offset="49.2996078%"></stop>
            <stop stop-color="#2812FE" offset="60.4829352%"></stop>
            <stop stop-color="#2B0FFE" offset="62.5788323%"></stop>
            <stop stop-color="#0A33FE" offset="73.4617795%"></stop>
            <stop stop-color="#045DFE" offset="83.9187109%"></stop>
            <stop stop-color="#02BEFE" offset="100%"></stop>
        </linearGradient>
    </defs>
    <g id="Home-Page-Desktop" stroke="none" stroke-width="1" fill="none" fill-rule="evenodd" stroke-linejoin="round">
        <g id="Home-page--2" transform="translate(-113.247735, -485.128203)" stroke="url(#linearGradient-1)" stroke-width="1.5">
            <g id="Social-Sticky" transform="translate(89.000000, 459.000000)">
                <g id="Twitter" transform="translate(14.000000, 14.000000)">
                    <path d="M28.9441407,16.9264062 C28.956836,17.1040625 28.956836,17.2817578 28.956836,17.459414 C28.956836,22.8781641 24.8325,29.121836 17.294414,29.121836 C14.9720703,29.121836 12.8147265,28.4492188 10.9999999,27.2817578 C11.3299609,27.3198047 11.6471875,27.3325 11.9898437,27.3325 C13.9060547,27.3325 15.670039,26.6853125 17.0786719,25.58125 C15.2766406,25.5431641 13.7664843,24.3629688 13.2461718,22.7385938 C13.4999999,22.7766406 13.753789,22.8020313 14.0203125,22.8020313 C14.3883203,22.8020313 14.7563672,22.75125 15.0989843,22.6624609 C13.2208203,22.2817188 11.8121484,20.6319922 11.8121484,18.6396094 L11.8121484,18.5888672 C12.3578125,18.8934375 12.9923828,19.0837891 13.6649218,19.1091406 C12.5608593,18.3730859 11.837539,17.1167578 11.837539,15.6954297 C11.837539,14.9340234 12.0405468,14.2360547 12.3958984,13.626914 C14.4136718,16.1142187 17.4466797,17.7385547 20.8476562,17.91625 C20.7842187,17.6116797 20.7461328,17.2944531 20.7461328,16.9771875 C20.7461328,14.7182812 22.5735547,12.8782031 24.8451172,12.8782031 C26.0253125,12.8782031 27.0912891,13.373125 27.8400391,14.1726172 C28.7664063,13.9949609 29.6547266,13.6523047 30.4415625,13.1827734 C30.1369532,14.1345703 29.4897657,14.9340625 28.6395313,15.4416406 C29.4644141,15.3528515 30.2639063,15.124375 30.9999219,14.8071484 C30.4416407,15.6192968 29.7436329,16.3426172 28.9441407,16.9264062 Z" id="Twitter-Icon-Hover"></path>
                </g>
            </g>
        </g>
    </g>
</svg>