<?xml version="1.0" encoding="UTF-8"?>
<svg width="17.5097657px" height="17.5058595px" viewBox="0 0 17.5097657 17.5058595" version="1.1" xmlns="http://www.w3.org/2000/svg" xmlns:xlink="http://www.w3.org/1999/xlink">
    <title>Instagram Icon Hover</title>
    <defs>
        <linearGradient x1="1.45015705e-13%" y1="99.9776935%" x2="100%" y2="0.0223064909%" id="linearGradient-1">
            <stop stop-color="#851AFF" offset="0%"></stop>
            <stop stop-color="#4E18FF" offset="22.4291475%"></stop>
            <stop stop-color="#4317FF" offset="37.4766566%"></stop>
            <stop stop-color="#4913FF" offset="49.2996078%"></stop>
            <stop stop-color="#2812FE" offset="60.4829352%"></stop>
            <stop stop-color="#2B0FFE" offset="62.5788323%"></stop>
            <stop stop-color="#0A33FE" offset="73.4617795%"></stop>
            <stop stop-color="#045DFE" offset="83.9187109%"></stop>
            <stop stop-color="#02BEFE" offset="100%"></stop>
        </linearGradient>
    </defs>
    <g id="Home-Page-Desktop" stroke="none" stroke-width="1" fill="none" fill-rule="evenodd">
        <g id="Home-page--2" transform="translate(-115.247070, -531.243164)" fill="url(#linearGradient-1)" fill-rule="nonzero">
            <g id="Social-Sticky" transform="translate(89.000000, 459.000000)">
                <g id="Icons" transform="translate(14.000000, 14.000000)">
                    <g id="Instagram" transform="translate(0.000000, 46.000000)">
                        <path d="M21.0039063,16.5078125 C18.5195312,16.5078125 16.515625,18.5117187 16.515625,20.9960937 C16.515625,23.4804688 18.5195312,25.484375 21.0039063,25.484375 C23.4882813,25.484375 25.4921875,23.4804688 25.4921875,20.9960937 C25.4921875,18.5117187 23.4882813,16.5078125 21.0039063,16.5078125 Z M21.0039063,23.9140625 C19.3984375,23.9140625 18.0859375,22.6054688 18.0859375,20.9960937 C18.0859375,19.3867187 19.3945312,18.078125 21.0039063,18.078125 C22.6132813,18.078125 23.921875,19.3867187 23.921875,20.9960937 C23.921875,22.6054688 22.609375,23.9140625 21.0039063,23.9140625 L21.0039063,23.9140625 Z M26.7226563,16.3242187 C26.7226563,16.90625 26.2539063,17.3710937 25.6757813,17.3710937 C25.09375,17.3710937 24.6289063,16.9023437 24.6289063,16.3242187 C24.6289063,15.7460937 25.0976563,15.2773437 25.6757813,15.2773437 C26.2539063,15.2773437 26.7226563,15.7460937 26.7226563,16.3242187 Z M29.6953125,17.3867187 C29.6289063,15.984375 29.3085938,14.7421875 28.28125,13.71875 C27.2578125,12.6953125 26.015625,12.375 24.6132813,12.3046875 C23.1679688,12.2226562 18.8359375,12.2226562 17.390625,12.3046875 C15.9921875,12.3710937 14.75,12.6914062 13.7226562,13.7148437 C12.6953125,14.7382812 12.3789062,15.9804687 12.3085937,17.3828125 C12.2265625,18.828125 12.2265625,23.1601563 12.3085937,24.6054688 C12.375,26.0078125 12.6953125,27.25 13.7226562,28.2734375 C14.75,29.296875 15.9882812,29.6171875 17.390625,29.6875 C18.8359375,29.7695313 23.1679688,29.7695313 24.6132813,29.6875 C26.015625,29.6210938 27.2578125,29.3007813 28.28125,28.2734375 C29.3046875,27.25 29.625,26.0078125 29.6953125,24.6054688 C29.7773438,23.1601563 29.7773438,18.8320312 29.6953125,17.3867187 Z M27.828125,26.15625 C27.5234375,26.921875 26.9335938,27.5117188 26.1640625,27.8203125 C25.0117188,28.2773438 22.2773438,28.171875 21.0039063,28.171875 C19.7304687,28.171875 16.9921875,28.2734375 15.84375,27.8203125 C15.078125,27.515625 14.4882812,26.9257813 14.1796875,26.15625 C13.7226562,25.0039063 13.828125,22.2695313 13.828125,20.9960937 C13.828125,19.7226562 13.7265625,16.984375 14.1796875,15.8359375 C14.484375,15.0703125 15.0742187,14.4804687 15.84375,14.171875 C16.9960937,13.7148437 19.7304687,13.8203125 21.0039063,13.8203125 C22.2773438,13.8203125 25.015625,13.71875 26.1640625,14.171875 C26.9296875,14.4765625 27.5195313,15.0664062 27.828125,15.8359375 C28.2851563,16.9882812 28.1796875,19.7226562 28.1796875,20.9960937 C28.1796875,22.2695313 28.2851563,25.0078125 27.828125,26.15625 Z" id="Instagram-Icon-Hover"></path>
                    </g>
                </g>
            </g>
        </g>
    </g>
</svg>