<?xml version="1.0" encoding="UTF-8"?>
<svg width="19.7039063px" height="18.7000001px" viewBox="0 0 19.7039063 18.7000001" version="1.1" xmlns="http://www.w3.org/2000/svg" xmlns:xlink="http://www.w3.org/1999/xlink">
    <title>Linkedin</title>
    <g id="Home-Page-Desktop" stroke="none" stroke-width="1" fill="none" fill-rule="evenodd" stroke-linejoin="round">
        <g id="Home-page--2" transform="translate(-25.6305, -621.4)" stroke="#FFFFFF" stroke-width="1.2">
            <g id="Social-Sticky" transform="translate(0, 459)">
                <g id="Icons" transform="translate(14, 14)">
                    <g id="Linkedin" transform="translate(0, 138)">
                        <path d="M16.1484375,28.5 L12.5195312,28.5 L12.5195312,16.8164062 L16.1484375,16.8164062 L16.1484375,28.5 Z M14.3320312,15.2226562 C13.171875,15.2226562 12.2304687,14.2617187 12.2304687,13.1015625 C12.2304687,11.9414062 13.171875,10.9999999 14.3320312,10.9999999 C15.4921875,10.9999999 16.4335937,11.9414062 16.4335937,13.1015625 C16.4335937,14.2617187 15.4921875,15.2226562 14.3320312,15.2226562 Z M27.109375,28.5 L27.109375,22.8125 C27.109375,21.4570313 27.0820313,19.71875 25.2226563,19.71875 C23.3359375,19.71875 23.046875,21.1914063 23.046875,22.7148438 L23.046875,28.5 L19.421875,28.5 L19.421875,16.8164062 L22.9023438,16.8164062 L22.9023438,18.4101562 L22.953125,18.4101562 C23.4375,17.4921875 24.6210938,16.5234375 26.3867188,16.5234375 C30.0585938,16.5234375 30.734375,18.9414062 30.734375,22.0820313 L30.734375,28.5 L27.109375,28.5 Z" id="Shape"></path>
                    </g>
                </g>
            </g>
        </g>
    </g>
</svg>