<svg fill="none" xmlns="http://www.w3.org/2000/svg" viewBox="0 0 30 22">
    <path
        d="M14.932 14.387c-4.6 0-8.48.751-8.48 3.652 0 2.902 3.905 3.628 8.48 3.628 4.6 0 8.482-.752 8.482-3.653 0-2.902-3.907-3.627-8.482-3.627Z"
        fill="currentColor" />
    <path opacity=".4"
        d="M14.932 11.623c3.115 0 5.613-2.512 5.613-5.645 0-3.134-2.498-5.645-5.613-5.645S9.32 2.844 9.32 5.978c0 3.133 2.497 5.645 5.612 5.645ZM27.118 7.292c.805-3.17-1.557-6.016-4.566-6.016-.327 0-.64.036-.945.097-.04.01-.086.03-.11.066-.028.045-.007.107.023.146a7.743 7.743 0 0 1 1.423 4.495A7.683 7.683 0 0 1 21.63 10.4a.211.211 0 0 0 .142.325c.21.038.425.057.644.063 2.191.058 4.157-1.36 4.7-3.497Z"
        fill="currentColor" />
    <path
        d="M29.413 14.756c-.402-.86-1.37-1.45-2.842-1.739-.695-.17-2.575-.41-4.324-.378-.026.004-.04.022-.043.034-.004.017.003.045.038.063.808.403 3.933 2.152 3.54 5.842-.017.16.111.298.27.274.769-.11 2.747-.538 3.36-1.87.34-.703.34-1.521 0-2.226Z"
        fill="currentColor" />
    <path opacity=".4"
        d="M8.393 1.373a4.686 4.686 0 0 0-.945-.097c-3.009 0-5.372 2.847-4.565 6.017.542 2.136 2.509 3.554 4.7 3.496.22-.006.435-.026.644-.062a.211.211 0 0 0 .142-.325A7.686 7.686 0 0 1 7.057 6.08c0-1.668.52-3.22 1.424-4.494.03-.04.05-.101.022-.147-.024-.037-.068-.056-.11-.066Z"
        fill="currentColor" />
    <path
        d="M3.429 13.017c-1.472.29-2.44.879-2.84 1.739a2.558 2.558 0 0 0 0 2.227c.613 1.33 2.592 1.76 3.36 1.868.16.024.286-.113.269-.273-.393-3.69 2.732-5.439 3.541-5.84.034-.02.04-.048.037-.066-.002-.012-.015-.03-.042-.032-1.75-.034-3.63.206-4.325.377Z"
        fill="currentColor" />
</svg>