<svg fill="none" xmlns="http://www.w3.org/2000/svg" viewBox="0 0 28 26">
    <path opacity=".4"
        d="M26.134 9.784H24.53V8.215c0-.67-.537-1.215-1.198-1.215a1.21 1.21 0 0 0-1.199 1.215v1.569h-1.601c-.662 0-1.199.546-1.199 1.215 0 .67.537 1.216 1.199 1.216h1.601v1.57c0 .67.538 1.215 1.199 1.215s1.198-.546 1.198-1.216v-1.57h1.604A1.21 1.21 0 0 0 27.333 11a1.21 1.21 0 0 0-1.199-1.215Z"
        fill="currentColor" />
    <path
        d="M10.666 17.02c-5.394 0-10 .863-10 4.309 0 3.444 4.578 4.338 10 4.338 5.393 0 10-.863 10-4.309 0-3.445-4.577-4.337-10-4.337Z"
        fill="currentColor" />
    <path opacity=".4"
        d="M10.667 13.739c3.672 0 6.617-2.982 6.617-6.702 0-3.72-2.945-6.704-6.617-6.704-3.673 0-6.617 2.984-6.617 6.704 0 3.72 2.944 6.702 6.617 6.702Z"
        fill="currentColor" />
</svg>