<svg fill="none" xmlns="http://www.w3.org/2000/svg" viewBox="0 0 32 32">
    <path opacity=".4" fill-rule="evenodd" clip-rule="evenodd"
        d="M3.66 21.58V9.833a6.496 6.496 0 0 1 6.507-6.494h11.667a6.493 6.493 0 0 1 6.493 6.494v12.333a6.493 6.493 0 0 1-6.494 6.493H10.236a5 5 0 0 0-6.575-7.08Z"
        fill="currentColor" />
    <path
        d="M24.607 11.06c0-.56.454-1 1-1h3.72c.547 0 1 .44 1 1s-.453 1-1 1H25.62c-.56 0-1.013-.44-1.013-1ZM24.607 20.952c0-.56.454-1 1-1h3.72c.56 0 1 .453 1 1 0 .56-.453 1-1 1H25.62c-.56 0-1.013-.44-1.013-1ZM15.613 8.93a3.252 3.252 0 0 0-3.25 3.25c0 1.758 1.376 3.18 3.168 3.242a.547.547 0 0 1 .15 0h.048a3.24 3.24 0 0 0 3.133-3.242 3.252 3.252 0 0 0-3.25-3.25ZM19.088 17.241c-1.909-1.272-5.02-1.272-6.943 0-.868.582-1.347 1.368-1.347 2.21 0 .84.479 1.62 1.34 2.195.958.643 2.217.964 3.475.964 1.259 0 2.517-.321 3.475-.964.861-.582 1.34-1.361 1.34-2.21-.006-.84-.479-1.62-1.34-2.195ZM8.83 23.17a4.008 4.008 0 0 0-5.66 0 4.008 4.008 0 0 0 0 5.66 4.008 4.008 0 0 0 5.66 0 4.008 4.008 0 0 0 0-5.66Zm-.76 3.39c-.13.14-.32.22-.53.22H6.8v.78c0 .21-.08.39-.22.53s-.32.22-.53.22c-.41 0-.75-.34-.75-.75v-.78h-.75a.749.749 0 1 1 0-1.5h.75v-.71a.749.749 0 1 1 1.5 0v.71h.74c.42 0 .75.34.75.75 0 .21-.08.4-.22.53Z"
        fill="currentColor" />
</svg>