<svg xmlns="http://www.w3.org/2000/svg" fill="none" viewBox="0 0 28 28">
  <path fill="currentColor" d="M7.011 15.349a1.547 1.547 0 0 1 0-2.698l3.37-1.89c.258-.145.469-.362.608-.623l1.646-3.095a1.546 1.546 0 0 1 2.652-.13l2.23 3.355c.119.178.273.33.454.446l3.095 1.984a1.547 1.547 0 0 1 0 2.604l-3.095 1.984c-.18.116-.335.268-.454.446l-2.23 3.355a1.546 1.546 0 0 1-2.652-.13l-1.646-3.095a1.546 1.546 0 0 0-.609-.622l-3.369-1.891Z"/>
  <path fill="rgb(var(--black-50))" fill-rule="evenodd" d="M3.517 11.977c-1.579.886-1.579 3.16 0 4.046l5.054 2.836c.388.218.704.542.913.934l2.469 4.643c.824 1.551 3.006 1.658 3.979.195l3.344-5.033a2.32 2.32 0 0 1 .68-.669l4.643-2.976c1.423-.913 1.423-2.993 0-3.906L19.956 9.07a2.32 2.32 0 0 1-.68-.67L15.931 3.37c-.972-1.463-3.154-1.356-3.978.195L9.484 8.207a2.32 2.32 0 0 1-.913.934l-5.054 2.836Zm3.494.674a1.547 1.547 0 0 0 0 2.698l3.37 1.89c.258.145.47.362.608.623l1.646 3.095a1.546 1.546 0 0 0 2.652.13l2.23-3.355c.12-.178.274-.33.454-.446l3.095-1.984a1.547 1.547 0 0 0 0-2.604l-3.095-1.984a1.545 1.545 0 0 1-.453-.446l-2.23-3.355a1.546 1.546 0 0 0-2.653.13l-1.646 3.095c-.139.261-.35.478-.608.622l-3.37 1.891Z" clip-rule="evenodd"/>
</svg>