<svg xmlns="http://www.w3.org/2000/svg" fill="none" viewBox="0 0 25 25">
    <path fill="currentColor" d="M12.9805 22.7014c5.5228 0 10-4.4771 10-10 0-5.52283-4.4772-9.99998-10-9.99998-5.52288 0-10.00003 4.47715-10.00003 9.99998 0 5.5229 4.47715 10 10.00003 10Z" opacity=".4"/>
    <path fill="currentColor" d="M11.7202 16.9814c-.19 0-.38-.07-.53-.22-.29-.29-.29-.77 0-1.06l3-3-3-3.00001c-.29-.29-.29-.77 0-1.06.29-.29.77-.29 1.06 0l3.53 3.53001c.29.29.29.77 0 1.06l-3.53 3.53c-.15.15-.34.22-.53.22Z"/>
</svg>