<svg fill="none" xmlns="http://www.w3.org/2000/svg" viewBox="0 0 32 32">
    <path opacity=".4"
        d="M21.456 4h-10.9C5.823 4 3 6.604 3 10.972v10.044C3 25.396 5.822 28 10.557 28h10.886C26.177 28 29 25.396 29 21.028V10.972C29.013 6.604 26.19 4 21.456 4Z"
        fill="currentColor" />
    <path
        d="M16 19a1.14 1.14 0 0 1-.743-.263l-4.952-4.212a.808.808 0 0 1 0-1.265c.407-.346 1.08-.346 1.487 0L16 16.84l4.208-3.58c.407-.346 1.08-.346 1.487 0a.808.808 0 0 1 0 1.265l-4.952 4.212A1.14 1.14 0 0 1 16 19Z"
        fill="currentColor" />
</svg>