<svg fill="none" xmlns="http://www.w3.org/2000/svg" viewBox="0 0 32 32">
    <path opacity=".4"
        d="M21.587 2.667h-11.16c-4.853 0-7.747 2.893-7.747 7.746v11.16c0 4.854 2.894 7.747 7.747 7.747h11.16c4.853 0 7.747-2.893 7.747-7.747v-11.16c0-4.853-2.894-7.746-7.747-7.746Z"
        fill="currentColor" />
    <path
        d="M25.333 20H25v-9.667a3.665 3.665 0 0 0-3.667-3.666H10.667A3.665 3.665 0 0 0 7 10.333V20h-.333c-.547 0-1 .453-1 1 0 .547.453 1 1 1h5.12A4.345 4.345 0 0 0 16 25.333c2.04 0 3.76-1.426 4.213-3.333h5.12c.547 0 1-.453 1-1 0-.547-.453-1-1-1Zm-2.946-4.16c-.08-.027-.16-.053-.254-.08a4.11 4.11 0 0 0-.813-.093H10.653c-.28 0-.546.04-.813.093-.08.013-.16.053-.253.08-.174.053-.347.107-.507.187a.92.92 0 0 0-.107.04v-1.4c0-.92.747-1.667 1.667-1.667h10.666c.92 0 1.667.747 1.667 1.667v1.4c-.04-.014-.066-.027-.107-.04-.133-.08-.306-.134-.48-.187Zm-11.72-7.173h10.666c.92 0 1.667.746 1.667 1.666v1.08A3.711 3.711 0 0 0 21.333 11H10.667c-.6 0-1.16.16-1.667.413v-1.08c0-.92.746-1.666 1.666-1.666ZM19.332 20c-.546 0-1 .453-1 1A2.345 2.345 0 0 1 16 23.333 2.345 2.345 0 0 1 13.666 21c0-.547-.453-1-1-1H9v-.667c0-.92.746-1.666 1.666-1.666h10.667c.92 0 1.667.746 1.667 1.666V20h-3.667Z"
        fill="currentColor" />
</svg>