<svg fill="none" xmlns="http://www.w3.org/2000/svg" viewBox="0 0 16 14">
    <path
        d="m6.49.62 5.625 9.13a.58.58 0 0 1-.034.658c-.668.867-1.346 1.642-1.915 2.16 0 0-.456.445-.746.638-.394.31-.91.46-1.412.46-.562 0-1.094-.163-1.52-.49-.076-.075-.41-.357-.684-.624C4.103 10.994 1.292 6.927.44 4.789.303 4.477.016 3.646 0 3.215c0-.415.09-.817.29-1.202A2.488 2.488 0 0 1 1.49.959C1.838.825 2.886.618 2.916.618c.749-.134 1.8-.235 3.026-.284.22-.01.433.101.547.285Z"
        fill="currentColor" />
    <path opacity=".4"
        d="M9.52 1.23c-.25-.403.069-.91.548-.89 1.122.048 2.112.132 2.848.233.016.016 1.321.223 1.763.461A2.37 2.37 0 0 1 16 3.142v.073c-.015.565-.516 1.767-.547 1.767-.252.606-.678 1.397-1.192 2.247a.612.612 0 0 1-1.037.01L9.52 1.228Z"
        fill="currentColor" />
</svg>