<svg fill="none" xmlns="http://www.w3.org/2000/svg" viewBox="0 0 32 32">
    <path opacity=".3"
        d="M16 29.333c7.364 0 13.333-5.97 13.333-13.333 0-7.364-5.97-13.333-13.333-13.333C8.636 2.667 2.666 8.637 2.666 16c0 7.364 5.97 13.333 13.334 13.333Z"
        fill="currentColor" />
    <path
        d="m23.187 12.347-4.054-4.054c-.093-.093-.2-.16-.32-.213a.942.942 0 0 0-.76 0c-.24.107-.44.293-.546.547a.955.955 0 0 0-.08.386V22.76c0 .547.453 1 1 1 .546 0 1-.453 1-1V11.427l2.346 2.346c.2.2.454.293.707.293a.99.99 0 0 0 .707-.293c.386-.413.386-1.04 0-1.426ZM14.573 9c0-.547-.453-1-1-1-.546 0-1 .453-1 1v11.333l-2.346-2.346a1.006 1.006 0 0 0-1.414 0 1.006 1.006 0 0 0 0 1.413l4.054 4.053a1.034 1.034 0 0 0 .706.294c.134 0 .254-.027.387-.08.24-.107.44-.294.547-.547a.957.957 0 0 0 .08-.387V9h-.014Z"
        fill="currentColor" />
</svg>