<svg fill="none" xmlns="http://www.w3.org/2000/svg" viewBox="0 0 16 20">
    <path
        d="M.343 11.812 11.3 5.062a.696.696 0 0 1 .79.041c1.04.802 1.97 1.615 2.59 2.298 0 0 .535.547.767.894.373.474.553 1.093.553 1.695 0 .675-.197 1.314-.59 1.824-.088.091-.428.493-.748.82-1.87 2.043-6.75 5.415-9.316 6.438-.373.165-1.37.509-1.888.528a3.1 3.1 0 0 1-1.443-.347 2.986 2.986 0 0 1-1.264-1.44c-.161-.42-.41-1.677-.41-1.714-.16-.898-.281-2.159-.34-3.63a.74.74 0 0 1 .342-.657Z"
        fill="currentColor" />
    <path opacity=".4"
        d="M1.076 8.176c-.483.3-1.091-.083-1.068-.657.058-1.347.158-2.535.28-3.418.019-.02.267-1.586.553-2.115C1.34 1.002 2.318.4 3.371.4h.087c.678.018 2.12.62 2.12.656.728.303 1.676.815 2.697 1.43.46.279.47.962.01 1.245l-7.21 4.445Z"
        fill="currentColor" />
</svg>