<svg fill="none" xmlns="http://www.w3.org/2000/svg" viewBox="0 0 23 18">
    <path
        d="M22.479 10.57c-.08.08-.38.423-.662.707-1.644 1.782-5.935 4.696-8.18 5.588-.341.142-1.203.445-1.665.466-.44 0-.862-.102-1.263-.304a2.619 2.619 0 0 1-1.123-1.256c-.14-.364-.362-1.457-.362-1.477-.22-1.195-.34-3.137-.34-5.285 0-2.043.12-3.906.3-5.12.02-.022.242-1.38.482-1.844A2.52 2.52 0 0 1 11.892.668h.08c.601.02 1.865.548 1.865.566 2.125.892 6.315 3.665 8 5.508 0 0 .475.474.681.77.321.425.482.951.482 1.477 0 .588-.18 1.134-.521 1.58Z"
        fill="currentColor" />
    <path opacity=".4"
        d="M1.689 11.498c.82.505 1.898.427 3.028-.225.854-.493 1.386-1.265 1.472-2.117.086-.851-.283-1.712-1.013-2.365-1.42-1.265-2.523-1.093-3.05-.869-.08.03-.152.072-.236.12C1.36 6.348.675 7.048.569 8.697c-.103 1.294.311 2.29 1.12 2.801Z"
        fill="currentColor" />
</svg>