<svg fill="none" xmlns="http://www.w3.org/2000/svg" viewBox="0 0 32 32">
    <path opacity=".4"
        d="M2.667 21.587V10.413c0-4.853 2.893-7.746 7.746-7.746h11.16c4.867 0 7.76 2.893 7.76 7.746v11.16c0 4.854-2.893 7.747-7.746 7.747H10.413c-4.853.013-7.747-2.88-7.747-7.733Z"
        fill="currentColor" />
    <path
        d="m11.035 18.496 4.257 4.449a.978.978 0 0 0 .707.305c.269 0 .522-.113.706-.305l4.257-4.45c.197-.205.288-.465.288-.722 0-.256-.09-.517-.288-.722a.976.976 0 0 0-1.413 0l-2.556 2.671V9.778c0-.553-.439-1.028-.994-1.028-.555 0-.995.475-.995 1.028v9.944l-2.556-2.671a.976.976 0 0 0-1.413 0 1.058 1.058 0 0 0 0 1.445Z"
        fill="currentColor" stroke="currentColor" stroke-width=".5" />
</svg>