<svg fill="none" xmlns="http://www.w3.org/2000/svg" viewBox="0 0 32 32">
    <path d="M29.334 28.333H2.667c-.547 0-1 .454-1 1 0 .547.453 1 1 1h26.667c.546 0 1-.453 1-1 0-.546-.454-1-1-1Z"
        fill="currentColor" />
    <path opacity=".4" d="M22.667 2.667H9.333C5.333 2.667 4 5.053 4 8v21.333h24V8c0-2.947-1.333-5.333-5.333-5.333Z"
        fill="currentColor" />
    <path
        d="M13.333 23h-4c-.547 0-1-.453-1-1 0-.547.453-1 1-1h4c.547 0 1 .453 1 1 0 .547-.453 1-1 1ZM22.667 23h-4c-.547 0-1-.453-1-1 0-.547.453-1 1-1h4c.547 0 1 .453 1 1 0 .547-.453 1-1 1ZM13.333 17h-4c-.547 0-1-.453-1-1 0-.547.453-1 1-1h4c.547 0 1 .453 1 1 0 .547-.453 1-1 1ZM22.667 17h-4c-.547 0-1-.453-1-1 0-.547.453-1 1-1h4c.547 0 1 .453 1 1 0 .547-.453 1-1 1ZM13.333 11h-4c-.547 0-1-.453-1-1 0-.547.453-1 1-1h4c.547 0 1 .453 1 1 0 .547-.453 1-1 1ZM22.667 11h-4c-.547 0-1-.453-1-1 0-.547.453-1 1-1h4c.547 0 1 .453 1 1 0 .547-.453 1-1 1Z"
        fill="currentColor" />
</svg>