<svg fill="none" xmlns="http://www.w3.org/2000/svg" viewBox="0 0 30 30">
    <path fill-rule="evenodd" clip-rule="evenodd"
        d="M8 7.34V25h13V7.34C21 5.117 19.945 4 17.825 4h-6.639C9.066 4 8 5.117 8 7.34Zm3.885 3.369h5.544c.46 0 .84-.381.84-.84 0-.46-.38-.84-.84-.84h-5.544c-.46 0-.84.38-.84.84 0 .459.38.84.84.84Zm5.544 4.2h-5.544c-.46 0-.84-.38-.84-.84 0-.46.38-.84.84-.84h5.544c.46 0 .84.38.84.84 0 .46-.38.84-.84.84Zm-3.64 8.576c0 .46.38.84.84.84.46 0 .84-.38.84-.84v-4.2c0-.46-.38-.84-.84-.84-.46 0-.84.38-.84.84v4.2Z"
        fill="currentColor" />
    <path opacity=".4" fill-rule="evenodd" clip-rule="evenodd"
        d="M1 25V13.278C1 11.096 2.17 10 4.523 10H7v3H4.84c-.46 0-.84.38-.84.84 0 .46.38.84.84.84H7v2.52H4.84c-.46 0-.84.38-.84.84 0 .46.38.84.84.84H7V25H1ZM28 25V13.278C28 11.096 26.812 10 24.424 10H22v3h2.16c.46 0 .84.38.84.84 0 .46-.38.84-.84.84H22v2.52h2.16c.46 0 .84.38.84.84 0 .46-.38.84-.84.84H22V25h6Z"
        fill="currentColor" />
</svg>