<svg fill="none" xmlns="http://www.w3.org/2000/svg" viewBox="0 0 28 28">
    <g opacity=".4" fill="currentColor">
        <path
            d="M17.224 5.32a1.139 1.139 0 0 0-1.338.907 1.15 1.15 0 0 0 .902 1.346 4.616 4.616 0 0 1 3.659 3.667v.001a1.145 1.145 0 0 0 1.34.908 1.153 1.153 0 0 0 .904-1.349 6.899 6.899 0 0 0-5.467-5.48Z" />
        <path
            d="M17.141.677a1.09 1.09 0 0 0-.834.235 1.136 1.136 0 0 0-.43.78 1.146 1.146 0 0 0 1.009 1.265c4.322.482 7.682 3.85 8.168 8.185a1.143 1.143 0 1 0 2.272-.256C26.72 5.476 22.533 1.278 17.14.677Z" />
    </g>
    <path fill-rule="evenodd" clip-rule="evenodd"
        d="M12.709 15.296c5.319 5.318 6.525-.834 9.912 2.55 3.265 3.264 5.141 3.918 1.005 8.054-.519.416-3.81 5.426-15.38-6.14C-3.324 8.192 1.682 4.897 2.098 4.379c4.147-4.147 4.79-2.26 8.055 1.004 3.386 3.386-2.763 4.596 2.556 9.913Z"
        fill="currentColor" />
</svg>