<svg fill="none" xmlns="http://www.w3.org/2000/svg" viewBox="0 0 24 28">
    <path
        d="M17.4 22.12a1.13 1.13 0 0 1-1.093-1.133 1.108 1.108 0 0 1 1.08-1.132h.014c.619 0 1.12.506 1.12 1.132 0 .626-.501 1.133-1.12 1.133Zm-5.374-4.907c-.606.028-1.106-.453-1.133-1.065 0-.613.475-1.12 1.08-1.148.593 0 1.08.468 1.094 1.067a1.096 1.096 0 0 1-1.04 1.146Zm0 4.84c-.606.028-1.106-.453-1.133-1.066a1.14 1.14 0 0 1 1.08-1.147c.593 0 1.08.468 1.094 1.068a1.095 1.095 0 0 1-1.04 1.145Zm-5.413-4.84c-.606.028-1.107-.453-1.133-1.065 0-.613.474-1.12 1.08-1.148.593 0 1.08.468 1.093 1.067a1.095 1.095 0 0 1-1.04 1.146Zm-.014 4.84c-.606.028-1.106-.453-1.132-1.066a1.14 1.14 0 0 1 1.08-1.147c.592 0 1.08.468 1.093 1.068a1.095 1.095 0 0 1-1.04 1.145Zm9.721-5.918c0-.614.475-1.107 1.08-1.12.593 0 1.068.478 1.094 1.066.013.614-.461 1.12-1.054 1.132a1.086 1.086 0 0 1-1.12-1.065v-.013ZM0 10.343v10.15c0 4.214 2.66 6.84 6.836 6.84H17.15c4.216 0 6.85-2.573 6.85-6.758V10.343H0Z"
        fill="currentColor" />
    <path opacity=".4"
        d="M.004 10.342c.018-.782.083-2.335.207-2.835.632-2.812 2.78-4.6 5.849-4.854H17.94c3.043.268 5.216 2.067 5.849 4.854.122.486.188 2.052.205 2.835H.005Z"
        fill="currentColor" />
    <path
        d="M7.073 6.787c.58 0 1.015-.439 1.015-1.027V1.695c0-.588-.435-1.028-1.015-1.028-.58 0-1.014.44-1.014 1.028V5.76c0 .588.435 1.027 1.014 1.027ZM16.926 6.787c.567 0 1.015-.439 1.015-1.027V1.695c0-.588-.448-1.028-1.015-1.028-.58 0-1.014.44-1.014 1.028V5.76c0 .588.435 1.027 1.014 1.027Z"
        fill="currentColor" />
</svg>