<svg fill="none" xmlns="http://www.w3.org/2000/svg" viewBox="0 0 32 32">
    <path opacity=".4"
        d="m15.72 18.947-4.36 4.36c-.48-.427-.947-.867-1.4-1.32a37.887 37.887 0 0 1-3.72-4.36c-1.094-1.52-1.974-3.04-2.614-4.547-.64-1.52-.96-2.973-.96-4.36 0-.907.16-1.773.48-2.573.32-.814.827-1.56 1.534-2.227.853-.84 1.787-1.253 2.773-1.253.373 0 .747.08 1.08.24.347.16.654.4.894.746l3.093 4.36c.24.334.413.64.533.934.12.28.187.56.187.813 0 .32-.094.64-.28.947a4.533 4.533 0 0 1-.747.946L11.2 12.707a.714.714 0 0 0-.213.533c0 .107.013.2.04.307.04.106.08.186.106.266.24.44.654 1.014 1.24 1.707.6.693 1.24 1.4 1.934 2.107.48.466.946.92 1.413 1.32Z"
        fill="currentColor" />
    <path
        d="M29.293 24.44a3.384 3.384 0 0 1-.333 1.453c-.227.48-.52.934-.907 1.36-.653.72-1.373 1.24-2.187 1.574-.013 0-.026.013-.04.013-.786.32-1.64.493-2.56.493-1.36 0-2.813-.32-4.346-.973-1.534-.653-3.067-1.533-4.587-2.64-.52-.387-1.04-.773-1.533-1.187l4.36-4.36c.373.28.706.494.986.64.067.027.147.067.24.107a.92.92 0 0 0 .334.053c.227 0 .4-.08.547-.226l1.013-1c.333-.334.653-.587.96-.747.307-.187.613-.28.947-.28.253 0 .52.053.813.173.293.12.6.294.933.52l4.413 3.134c.347.24.587.52.734.853.133.333.213.667.213 1.04Z"
        fill="currentColor" />
</svg>