<svg fill="none" xmlns="http://www.w3.org/2000/svg" viewBox="0 0 28 28">
    <path opacity=".4"
        d="M19.434.667h4.515c1.87 0 3.384 1.527 3.384 3.413v4.553c0 1.885-1.515 3.413-3.384 3.413h-4.515c-1.87 0-3.385-1.528-3.385-3.413V4.08c0-1.886 1.515-3.413 3.385-3.413ZM4.385 16h4.514c1.87 0 3.385 1.528 3.385 3.413v4.553c0 1.886-1.515 3.413-3.385 3.413H4.385C2.515 27.38 1 25.852 1 23.966v-4.553C1 17.528 2.515 16 4.385 16Z"
        fill="currentColor" />
    <path
        d="M8.566.667c1.87 0 3.384 1.527 3.384 3.413v4.553c0 1.885-1.514 3.413-3.384 3.413H4.05c-1.87 0-3.384-1.528-3.384-3.413V4.08C.667 2.194 2.182.667 4.05.667h4.515ZM23.9 16c1.869 0 3.384 1.528 3.384 3.413v4.553c0 1.886-1.515 3.413-3.385 3.413h-4.514c-1.87 0-3.385-1.527-3.385-3.413v-4.553C16 17.528 17.515 16 19.385 16h4.514Z"
        fill="currentColor" />
</svg>