<svg fill="none" xmlns="http://www.w3.org/2000/svg" viewBox="0 0 26 27">
    <path opacity=".4"
        d="M18.028 1.398H7.972C3.604 1.398 1 4.002 1 8.37v10.056c0 4.368 2.604 6.972 6.972 6.972h10.056c4.368 0 6.972-2.604 6.972-6.972V8.37c0-4.368-2.604-6.972-6.972-6.972Z"
        fill="currentColor" stroke="currentColor" stroke-width="2" />
    <path d="M6 19.353h4.454M6 12.99h4.454M6 7.262h14" stroke="currentColor" stroke-width="2.5" stroke-linecap="round"
        stroke-linejoin="round" />
    <path
        d="M20.884 13.873a1.25 1.25 0 0 0-1.768-1.768l1.768 1.768Zm-6.859 3.323a1.25 1.25 0 1 0 1.768 1.768l-1.768-1.768Zm5.091-5.09-5.09 5.09 1.767 1.768 5.091-5.091-1.768-1.768Z"
        fill="currentColor" />
    <path
        d="M15.793 12.105a1.25 1.25 0 1 0-1.768 1.768l1.768-1.768Zm3.323 6.859a1.25 1.25 0 0 0 1.768-1.768l-1.768 1.768Zm-5.09-5.09 5.09 5.09 1.768-1.768-5.09-5.09-1.769 1.767Z"
        fill="currentColor" />
</svg>