<svg fill="none" xmlns="http://www.w3.org/2000/svg" viewBox="0 0 28 28">
    <path opacity=".4"
        d="M14.027.667C6.28.667.667 6.987.667 14c0 2.24.653 4.547 1.8 6.653.213.347.24.787.093 1.2l-.893 2.987c-.2.72.413 1.253 1.093 1.04l2.693-.8c.733-.24 1.307.067 1.988.48 1.947 1.147 4.372 1.733 6.559 1.733 6.613 0 13.333-5.106 13.333-13.333C27.333 6.867 21.6.667 14.027.667Z"
        fill="currentColor" />
    <path
        d="M7.827 12.307c.946 0 1.706.76 1.706 1.707 0 .933-.76 1.693-1.706 1.706a1.719 1.719 0 0 1-1.707-1.707c0-.946.76-1.706 1.707-1.706Zm6.147 0c.947 0 1.707.76 1.707 1.707a1.71 1.71 0 0 1-1.707 1.706A1.721 1.721 0 0 1 12.267 14c0-.933.774-1.707 1.707-1.693Zm6.146 0c.947 0 1.707.76 1.707 1.707a1.71 1.71 0 0 1-1.707 1.706 1.71 1.71 0 0 1-1.706-1.707c0-.946.76-1.706 1.706-1.706Z"
        fill="currentColor" />
</svg>