<svg fill="none" xmlns="http://www.w3.org/2000/svg" viewBox="0 0 28 28">
    <path opacity=".4"
        d="M20.234.667H7.778C3.238.667.667 3.238.667 7.777v12.445c0 4.54 2.571 7.111 7.11 7.111h12.457c4.54 0 7.1-2.572 7.1-7.11V7.777c0-4.54-2.56-7.111-7.1-7.111Z"
        fill="currentColor" />
    <path
        d="M7.825 10.492a1.11 1.11 0 0 0-1.102 1.114v9.161a1.108 1.108 0 0 0 2.216 0v-9.161c0-.616-.498-1.114-1.114-1.114ZM14.047 6.119a1.11 1.11 0 0 0-1.102 1.114v13.534a1.108 1.108 0 0 0 2.216 0V7.233c0-.617-.498-1.114-1.114-1.114ZM20.186 15.328c-.616 0-1.114.497-1.114 1.114v4.325a1.108 1.108 0 0 0 2.217 0v-4.325a1.11 1.11 0 0 0-1.103-1.114Z"
        fill="currentColor" />
</svg>