<svg fill="none" xmlns="http://www.w3.org/2000/svg" viewBox="0 0 32 32">
    <path opacity=".4"
        d="M16.333 29.667c7.364 0 13.334-5.97 13.334-13.334C29.667 8.97 23.697 3 16.333 3 8.97 3 3 8.97 3 16.333c0 7.364 5.97 13.334 13.333 13.334Z"
        fill="currentColor" />
    <path
        d="M14.353 20.705c-.3 0-.6-.114-.83-.343l-3.18-3.18a1.171 1.171 0 0 1 0-1.657c.459-.458 1.2-.46 1.658-.002l2.352 2.352 5.531-5.531a1.173 1.173 0 0 1 1.658 1.659l-6.36 6.36c-.229.228-.529.342-.829.342Z"
        fill="currentColor" />
</svg>