<svg xmlns="http://www.w3.org/2000/svg" fill="currentColor" viewBox="0 0 28 28">
  <path fill="currentColor" d="M14 25.667c6.443 0 11.667-5.224 11.667-11.667S20.443 2.333 14 2.333 2.333 7.557 2.333 14 7.557 25.667 14 25.667Z" opacity=".4"/>
  <path fill="currentColor" d="m15.237 14 2.683-2.683a.88.88 0 0 0 0-1.237.88.88 0 0 0-1.237 0L14 12.763l-2.683-2.683a.88.88 0 0 0-1.237 0 .88.88 0 0 0 0 1.237L12.763 14l-2.683 2.683a.88.88 0 0 0 0 1.237.865.865 0 0 0 .618.257.865.865 0 0 0 .619-.257L14 15.237l2.683 2.683a.865.865 0 0 0 .619.257.865.865 0 0 0 .618-.257.88.88 0 0 0 0-1.237L15.237 14Z"/>
</svg>