<svg xmlns="http://www.w3.org/2000/svg" fill="none" viewBox="0 0 24 24">
  <path fill="currentColor" d="M21.75 12.005c0 5.37-4.376 9.745-9.75 9.745s-9.75-4.374-9.75-9.745c0-5.38 4.376-9.755 9.75-9.755s9.75 4.374 9.75 9.755Z" opacity=".2"/>
  <path fill="currentColor" d="m13.07 12.278 1.715-1.715a.953.953 0 1 0-1.349-1.348l-1.715 1.714-1.714-1.714a.954.954 0 0 0-1.349 1.348l1.715 1.715-1.715 1.716a.953.953 0 1 0 1.349 1.348l1.714-1.715 1.715 1.714a.951.951 0 0 0 1.349 0 .953.953 0 0 0 0-1.347l-1.715-1.716Z"/>
</svg>