<svg fill="none" xmlns="http://www.w3.org/2000/svg" viewBox="0 0 32 32">
    <path opacity=".4"
        d="M2.66 9.833v12.333a6.493 6.493 0 0 0 6.494 6.493h11.68a6.493 6.493 0 0 0 6.493-6.493V9.833a6.493 6.493 0 0 0-6.493-6.494H9.167A6.496 6.496 0 0 0 2.66 9.833Z"
        fill="currentColor" />
    <path
        d="M23.607 11.06c0-.56.454-1 1-1h3.72c.547 0 1 .44 1 1s-.453 1-1 1H24.62c-.56 0-1.013-.44-1.013-1ZM23.607 20.952c0-.56.454-1 1-1h3.72c.56 0 1 .453 1 1 0 .56-.453 1-1 1H24.62c-.56 0-1.013-.44-1.013-1ZM14.613 8.93a3.252 3.252 0 0 0-3.25 3.25c0 1.758 1.376 3.18 3.168 3.242a.555.555 0 0 1 .15 0h.048a3.24 3.24 0 0 0 3.133-3.242 3.252 3.252 0 0 0-3.25-3.25ZM18.088 17.241c-1.909-1.272-5.02-1.272-6.943 0-.868.581-1.347 1.368-1.347 2.21 0 .84.479 1.62 1.34 2.195.958.643 2.217.964 3.475.964 1.259 0 2.517-.321 3.475-.964.861-.582 1.34-1.361 1.34-2.21-.006-.84-.479-1.62-1.34-2.195Z"
        fill="currentColor" />
</svg>