<svg fill="none" xmlns="http://www.w3.org/2000/svg" viewBox="0 0 32 32">
    <path opacity=".4"
        d="M29.013 21.227 20.48 5.867c-1.147-2.067-2.733-3.2-4.48-3.2-1.747 0-3.333 1.133-4.48 3.2l-8.533 15.36c-1.08 1.96-1.2 3.84-.334 5.32.867 1.48 2.574 2.293 4.814 2.293h17.066c2.24 0 3.947-.813 4.814-2.293.866-1.48.746-3.374-.334-5.32Z"
        fill="currentColor" />
    <path
        d="M16 19.667c-.547 0-1-.454-1-1V12c0-.547.453-1 1-1 .547 0 1 .453 1 1v6.667c0 .546-.453 1-1 1ZM16 24c-.08 0-.174-.013-.267-.027a.846.846 0 0 1-.24-.08 1.005 1.005 0 0 1-.24-.12l-.2-.16c-.24-.253-.387-.6-.387-.946 0-.347.147-.694.387-.947l.2-.16c.08-.053.16-.093.24-.12a.85.85 0 0 1 .24-.08c.173-.04.36-.04.52 0 .093.013.174.04.253.08.08.027.16.067.24.12l.2.16c.24.253.387.6.387.947 0 .346-.146.693-.386.946l-.2.16c-.08.054-.16.094-.24.12a.804.804 0 0 1-.254.08c-.08.014-.173.027-.253.027Z"
        fill="currentColor" />
</svg>