<svg fill="none" xmlns="http://www.w3.org/2000/svg" viewBox="0 0 24 28">
    <path opacity=".4"
        d="M22.191 10.651c0 .09-.71 9.079-1.116 12.861-.255 2.321-1.751 3.73-3.996 3.77-1.724.038-3.413.051-5.074.051-1.763 0-3.488-.013-5.162-.052-2.17-.052-3.667-1.488-3.908-3.769-.418-3.796-1.116-12.77-1.129-12.86a1.059 1.059 0 0 1 .255-.745.947.947 0 0 1 .697-.312h18.494c.266 0 .507.118.698.312.178.21.267.47.241.744Z"
        fill="currentColor" />
    <path
        d="M24 5.97a.963.963 0 0 0-.95-.978h-3.888c-.791 0-1.478-.563-1.655-1.356l-.218-.972C16.985 1.489 15.933.667 14.753.667H9.248c-1.193 0-2.234.822-2.55 2.06l-.204.91c-.178.792-.865 1.355-1.655 1.355H.952c-.52 0-.952.43-.952.977v.507c0 .534.432.977.952.977h22.097c.52 0 .951-.443.951-.977v-.507Z"
        fill="currentColor" />
</svg>