<svg fill="none" xmlns="http://www.w3.org/2000/svg" viewBox="0 0 32 32">
    <path opacity=".4"
        d="M21.587 5.333H10.413c-4.853 0-7.747 2.894-7.747 7.747v8.493c0 4.867 2.894 7.76 7.747 7.76h11.16c4.854 0 7.747-2.893 7.747-7.746V13.08c.013-4.853-2.88-7.747-7.733-7.747Z"
        fill="currentColor" />
    <path
        d="M28.4 16.307h-4.64c-1.307 0-2.467.72-3.054 1.893l-1.12 2.213a1.55 1.55 0 0 1-1.386.867h-4.373c-.414 0-1-.093-1.387-.867l-1.12-2.2a3.422 3.422 0 0 0-3.053-1.893H3.6a.928.928 0 0 0-.933.933V21.6c0 4.84 2.906 7.733 7.76 7.733H21.6c4.573 0 7.386-2.506 7.733-6.96V17.24a.936.936 0 0 0-.933-.933ZM19.373 8.627a1.006 1.006 0 0 0-1.413 0l-.96.96v-6.92c0-.547-.454-1-1-1-.547 0-1 .453-1 1v6.92l-.96-.96a1.006 1.006 0 0 0-1.414 0 1.006 1.006 0 0 0 0 1.413l2.667 2.667c.013.013.027.013.027.026.08.08.186.147.293.2.133.04.253.067.387.067a.895.895 0 0 0 .373-.08c.12-.053.227-.12.333-.213l2.667-2.667a1.006 1.006 0 0 0 0-1.413Z"
        fill="currentColor" />
</svg>