<svg fill="none" xmlns="http://www.w3.org/2000/svg" viewBox="0 0 32 32">
    <path opacity=".4"
        d="M20.666 17.533h-2.893a4.305 4.305 0 0 1-4.306-4.306v-2.894c0-.546-.44-1-1-1H8.24c-3.08 0-5.574 2-5.574 5.574v8.853c0 3.573 2.494 5.573 5.574 5.573h7.853c3.08 0 5.573-2 5.573-5.573v-5.227c0-.56-.453-1-1-1Z"
        fill="currentColor" />
    <path
        d="M23.76 2.667h-7.853c-3.014 0-5.454 1.92-5.56 5.346.08 0 .146-.013.226-.013h7.854C21.507 8 24 10 24 13.573v8.867c0 .08-.013.147-.013.213 2.973-.093 5.346-2.066 5.346-5.546V8.24c0-3.573-2.493-5.573-5.573-5.573Z"
        fill="currentColor" />
    <path
        d="M15.973 9.533c-.413-.413-1.12-.133-1.12.44v3.494c0 1.466 1.24 2.666 2.76 2.666.947.014 2.267.014 3.4.014.574 0 .867-.667.467-1.067-1.453-1.453-4.04-4.053-5.507-5.547Z"
        fill="currentColor" />
</svg>