<svg xmlns="http://www.w3.org/2000/svg" fill="none" viewBox="0 0 28 28">
    <path fill="currentColor"
        d="M23.916 11.888h-3.372a5.024 5.024 0 0 1-5.016-5.017V3.5a1.17 1.17 0 0 0-1.167-1.167H9.414c-3.593 0-6.498 2.333-6.498 6.498v10.337c0 4.165 2.905 6.498 6.498 6.498h9.17c3.594 0 6.499-2.333 6.499-6.498v-6.113a1.17 1.17 0 0 0-1.167-1.167Z"
        opacity=".4" />
    <path fill="currentColor"
        d="M18.432 2.578c-.479-.478-1.307-.152-1.307.513v4.072c0 1.703 1.447 3.115 3.208 3.115 1.109.012 2.649.012 3.967.012.665 0 1.015-.782.548-1.249-1.68-1.691-4.69-4.736-6.416-6.463Z" />
</svg>