<svg fill="none" xmlns="http://www.w3.org/2000/svg" viewBox="0 0 32 32">
    <path opacity=".3"
        d="M27.636 13.587h-3.853a5.742 5.742 0 0 1-5.733-5.734V4c0-.733-.6-1.333-1.334-1.333h-5.653c-4.107 0-7.427 2.666-7.427 7.426v11.814c0 4.76 3.32 7.426 7.427 7.426h10.48c4.107 0 7.427-2.666 7.427-7.426V14.92c0-.733-.6-1.333-1.334-1.333Z"
        fill="currentColor" />
    <path
        d="M14.136 24.8h-1.383l-1.328-2.16-1.328 2.16H8.8l1.894-2.945-1.773-2.766h1.336l1.23 2.055 1.207-2.055H14l-1.793 2.832 1.93 2.879ZM14.854 24.8v-5.71h1.211v4.71h2.317v1h-3.528ZM22.749 23.214c0 .516-.186.922-.559 1.219-.37.297-.885.445-1.546.445-.61 0-1.149-.114-1.618-.344V23.41c.386.172.711.293.977.364.268.07.513.105.734.105.266 0 .47-.05.61-.152.143-.102.214-.253.214-.453a.492.492 0 0 0-.093-.297 1.025 1.025 0 0 0-.278-.254c-.12-.08-.366-.21-.738-.387-.349-.164-.61-.321-.785-.473a1.774 1.774 0 0 1-.418-.527 1.506 1.506 0 0 1-.156-.703c0-.505.17-.902.512-1.191.343-.29.817-.434 1.421-.434.297 0 .58.035.848.105.27.07.553.17.848.297l-.39.942a5.663 5.663 0 0 0-.759-.262 2.408 2.408 0 0 0-.586-.074c-.229 0-.405.053-.527.16a.528.528 0 0 0-.184.418c0 .107.025.2.075.281.05.078.127.155.234.23.11.074.366.207.77.4.533.254.9.51 1.097.769.198.255.297.569.297.941ZM21.067 2.947c-.547-.547-1.494-.174-1.494.586v4.654c0 1.946 1.654 3.56 3.667 3.56 1.267.013 3.027.013 4.533.013.76 0 1.16-.893.627-1.427-1.92-1.933-5.36-5.413-7.333-7.386Z"
        fill="currentColor" />
</svg>