<svg xmlns="http://www.w3.org/2000/svg" fill="none" viewBox="0 0 29 28">
  <path fill="currentColor"
    d="M24.416 11.889h-3.372a5.024 5.024 0 0 1-5.016-5.017V3.5a1.17 1.17 0 0 0-1.167-1.167H9.914c-3.593 0-6.498 2.334-6.498 6.499v10.337c0 4.165 2.905 6.498 6.498 6.498h9.17c3.594 0 6.499-2.334 6.499-6.498v-6.114a1.17 1.17 0 0 0-1.167-1.166Z"
    opacity=".4" />
  <path fill="currentColor"
    d="M18.933 2.578c-.479-.478-1.307-.151-1.307.514v4.071c0 1.704 1.447 3.115 3.208 3.115 1.109.012 2.649.012 3.967.012.665 0 1.015-.782.548-1.248-1.68-1.692-4.69-4.737-6.416-6.464ZM13.951 14.549l-2.333-2.334c-.012-.011-.024-.011-.024-.023a.997.997 0 0 0-.256-.175h-.024c-.093-.035-.186-.047-.28-.058h-.093a.75.75 0 0 0-.303.081.772.772 0 0 0-.257.175L8.048 14.55a.88.88 0 0 0 0 1.236.88.88 0 0 0 1.236 0l.84-.84v4.889c0 .478.397.875.875.875a.881.881 0 0 0 .875-.875v-4.889l.84.84a.865.865 0 0 0 .619.257.865.865 0 0 0 .618-.257.88.88 0 0 0 0-1.236Z" />
</svg>