<svg fill="none" xmlns="http://www.w3.org/2000/svg" viewBox="0 0 32 32">
    <path opacity=".4"
        d="M16 29.2c7.364 0 13.333-5.97 13.333-13.333 0-7.364-5.97-13.334-13.333-13.334-7.364 0-13.334 5.97-13.334 13.334C2.666 23.23 8.636 29.2 16 29.2Z"
        fill="currentColor" />
    <path
        d="M19.014 16 17 15.293v-4.52h.48c1.08 0 1.96.947 1.96 2.107 0 .547.453 1 1 1 .547 0 1-.453 1-1 0-2.267-1.773-4.107-3.96-4.107H17V8c0-.547-.453-1-1-1-.546 0-1 .453-1 1v.773h-.867c-1.973 0-3.586 1.667-3.586 3.707 0 2.387 1.386 3.147 2.44 3.52l2.013.707v4.506h-.48c-1.08 0-1.96-.946-1.96-2.106 0-.547-.453-1-1-1-.546 0-1 .453-1 1 0 2.266 1.774 4.106 3.96 4.106H15V24c0 .547.454 1 1 1 .547 0 1-.453 1-1v-.773h.867c1.973 0 3.586-1.667 3.586-3.707-.013-2.4-1.4-3.16-2.44-3.52Zm-5.36-1.88c-.68-.24-1.094-.467-1.094-1.627 0-.946.707-1.706 1.587-1.706h.867V14.6l-1.36-.48Zm4.213 7.107H17v-3.814l1.347.467c.68.24 1.093.467 1.093 1.627 0 .946-.707 1.72-1.573 1.72Z"
        fill="currentColor" />
</svg>