<svg fill="none" xmlns="http://www.w3.org/2000/svg" viewBox="0 0 28 28">
    <path opacity=".4"
        d="M20.219 27.32H7.779a7.124 7.124 0 0 1-5.247-1.852A7.127 7.127 0 0 1 .68 20.22V7.78a7.126 7.126 0 0 1 1.85-5.248A7.129 7.129 0 0 1 7.78.68h12.439a7.117 7.117 0 0 1 5.244 1.85 7.162 7.162 0 0 1 1.857 5.25v12.44a7.133 7.133 0 0 1-1.852 5.248 7.13 7.13 0 0 1-5.249 1.852Z"
        fill="currentColor" />
    <path
        d="m20.74 11.863-8.738 8.78a2.4 2.4 0 0 1-1.675.69h-3.05a.617.617 0 0 1-.442-.182.609.609 0 0 1-.168-.442l.077-3.083c.013-.611.26-1.184.688-1.613l6.193-6.205a.282.282 0 0 1 .39 0l2.171 2.163a.82.82 0 0 0 .572.235c.48 0 .856-.39.856-.859a.882.882 0 0 0-.233-.598c-.04-.053-2.107-2.112-2.107-2.112a.346.346 0 0 1 0-.48l.87-.886a2.05 2.05 0 0 1 2.908 0l1.687 1.692a2.068 2.068 0 0 1 0 2.9Z"
        fill="currentColor" />
</svg>