<svg fill="none" xmlns="http://www.w3.org/2000/svg" viewBox="0 0 24 24">
    <path opacity=".4"
        d="M22.657 21.271h-7.593c-.74 0-1.343.612-1.343 1.364 0 .754.603 1.365 1.343 1.365h7.593c.74 0 1.343-.61 1.343-1.364 0-.753-.602-1.365-1.343-1.365Z"
        fill="currentColor" />
    <path
        d="m9.745 5.205 7.195 5.814a.413.413 0 0 1 .068.572l-8.53 11.113a2.8 2.8 0 0 1-2.173 1.09l-4.656.057a.53.53 0 0 1-.522-.416l-1.058-4.6c-.183-.846 0-1.72.536-2.394L9.177 5.274a.399.399 0 0 1 .568-.069Z"
        fill="currentColor" />
    <path opacity=".4"
        d="m20.16 7.554-1.386 1.731a.397.397 0 0 1-.565.065c-1.686-1.365-6.003-4.866-7.201-5.837a.411.411 0 0 1-.058-.576l1.338-1.66C13.5-.287 15.618-.43 17.325.931l1.96 1.562c.805.631 1.341 1.462 1.525 2.337.211.961-.014 1.906-.65 2.723Z"
        fill="currentColor" />
</svg>