<svg fill="none" xmlns="http://www.w3.org/2000/svg" viewBox="0 0 32 32">
    <path opacity=".4"
        d="M21.587 2.667H10.413c-4.853 0-7.747 2.893-7.747 7.746v11.16c0 4.867 2.894 7.76 7.747 7.76h11.16c4.854 0 7.747-2.893 7.747-7.746V10.413c.013-4.853-2.88-7.746-7.733-7.746Z"
        fill="currentColor" />
    <path
        d="M20.667 13.507a2.507 2.507 0 1 0 0-5.014 2.507 2.507 0 0 0 0 5.014ZM11.333 13.507a2.507 2.507 0 1 0 0-5.014 2.507 2.507 0 0 0 0 5.014ZM20.8 17.227h-9.6c-.933 0-1.693.76-1.693 1.706a6.515 6.515 0 0 0 6.507 6.507 6.515 6.515 0 0 0 6.506-6.507 1.74 1.74 0 0 0-1.72-1.706Z"
        fill="currentColor" />
</svg>