<svg fill="none" xmlns="http://www.w3.org/2000/svg" viewBox="0 0 26 26">
    <path opacity=".12"
        d="M26 13.006C26 20.168 20.165 26 13 26S0 20.168 0 13.006C0 5.832 5.835 0 13 0s13 5.832 13 13.006Z"
        fill="currentColor" />
    <path
        d="m14.426 13.371 2.287-2.287a1.27 1.27 0 1 0-1.799-1.797l-2.286 2.285-2.286-2.285a1.272 1.272 0 0 0-1.798 1.797l2.287 2.287-2.287 2.287a1.27 1.27 0 1 0 1.798 1.798l2.286-2.286 2.287 2.286a1.268 1.268 0 0 0 1.799 0 1.27 1.27 0 0 0 0-1.798l-2.288-2.287Z"
        fill="currentColor" />
</svg>