<svg fill="none" xmlns="http://www.w3.org/2000/svg" viewBox="0 0 28 24">
    <path opacity=".4"
        d="M11.444 17.277H2.677c-1.11 0-2.01.885-2.01 1.975 0 1.089.9 1.975 2.01 1.975h8.767c1.11 0 2.01-.886 2.01-1.975 0-1.09-.9-1.975-2.01-1.975ZM27.333 4.505c0-1.089-.9-1.974-2.009-1.974h-8.767c-1.11 0-2.01.885-2.01 1.974 0 1.09.9 1.975 2.01 1.975h8.767c1.108 0 2.009-.885 2.009-1.975Z"
        fill="currentColor" />
    <path
        d="M9.837 4.505c0 2.489-2.052 4.506-4.585 4.506C2.72 9.01.667 6.994.667 4.505.667 2.017 2.72 0 5.252 0c2.533 0 4.585 2.017 4.585 4.505ZM27.333 19.199c0 2.487-2.051 4.505-4.585 4.505-2.532 0-4.585-2.018-4.585-4.505 0-2.489 2.053-4.506 4.585-4.506 2.534 0 4.585 2.017 4.585 4.506Z"
        fill="currentColor" />
</svg>