<svg fill="none" xmlns="http://www.w3.org/2000/svg" viewBox="0 0 32 32">
    <path
        d="m28.08 15.76-.213-.293a4.279 4.279 0 0 0-1.32-1.08 4.544 4.544 0 0 0-2.254-.587h-16.6c-.8 0-1.56.2-2.253.587a4.51 4.51 0 0 0-1.373 1.146c-.76.974-1.12 2.174-1 3.374l.493 6.226c.173 1.88.4 4.2 4.627 4.2h15.626c4.227 0 4.44-2.32 4.627-4.213l.493-6.2a4.486 4.486 0 0 0-.853-3.16Zm-8.893 7.36H12.8a.936.936 0 0 1-.933-.933c0-.507.413-.934.933-.934h6.387c.52 0 .933.427.933.934 0 .52-.413.933-.933.933Z"
        fill="currentColor" />
    <path opacity=".4"
        d="M4.507 15.08c.293-.267.587-.507.933-.693a4.545 4.545 0 0 1 2.253-.587h16.614c.8 0 1.56.2 2.253.587.347.186.654.426.934.706v-2c0-4.76-1.454-6.213-6.214-6.213h-3.173c-.587 0-.6-.013-.947-.467l-1.6-2.146c-.76-.987-1.36-1.6-3.267-1.6H10.72c-4.76 0-6.213 1.453-6.213 6.213V15.08Z"
        fill="currentColor" />
</svg>