<svg fill="none" xmlns="http://www.w3.org/2000/svg" viewBox="0 0 32 32">
    <path opacity=".4"
        d="M20.96 2.667h-9.92a.945.945 0 0 0-.934.933c0 .507.427.933.934.933h4.346l1.867 2.48c.413.547.467.627 1.24.627h4.96c.507 0 1 .067 1.48.2.053.24.08.48.08.733v.467c0 .507.427.933.933.933a.945.945 0 0 0 .934-.933v-.48c-.027-3.253-2.667-5.893-5.92-5.893Z"
        fill="currentColor" />
    <path
        d="M26.853 8.72a5.574 5.574 0 0 0-1.933-.893 5.432 5.432 0 0 0-1.48-.2h-4.96c-.774 0-.827-.08-1.24-.627l-1.867-2.48c-.866-1.147-1.546-1.853-3.72-1.853H8.56A5.895 5.895 0 0 0 2.666 8.56v14.88a5.895 5.895 0 0 0 5.894 5.893h14.88a5.895 5.895 0 0 0 5.893-5.893v-9.92a5.855 5.855 0 0 0-2.48-4.8Zm-7.747 12.613h-6.213a.928.928 0 0 1-.933-.933c0-.507.413-.933.933-.933h6.2c.507 0 .933.426.933.933 0 .52-.413.933-.92.933Z"
        fill="currentColor" />
</svg>