<svg fill="none" xmlns="http://www.w3.org/2000/svg" viewBox="0 0 28 28">
    <path
        d="M11.537 5.407c.068.139.113.287.133.439l.37 5.52.185 2.774c.002.285.047.569.133.841a1.39 1.39 0 0 0 1.34.842l8.877-.581c.384-.006.756.137 1.032.4.23.218.379.504.426.811l.015.187c-.367 5.086-4.103 9.329-9.178 10.424-5.076 1.095-10.281-1.218-12.79-5.684a10.953 10.953 0 0 1-1.328-4.195 8.023 8.023 0 0 1-.084-1.315C.66 10.417 4.543 5.703 9.978 4.566a1.455 1.455 0 0 1 1.559.841Z"
        fill="currentColor" />
    <path opacity=".4"
        d="M15.16.668c6.08.154 11.19 4.526 12.173 10.415l-.01.043-.026.064.004.173c-.014.23-.103.451-.256.63-.16.186-.377.312-.616.361l-.146.02-10.242.664c-.34.034-.68-.076-.933-.302a1.178 1.178 0 0 1-.384-.716l-.687-10.227a.162.162 0 0 1 0-.106c.01-.282.133-.549.344-.74.211-.192.492-.292.779-.28Z"
        fill="currentColor" />
</svg>