<svg fill="none" xmlns="http://www.w3.org/2000/svg" viewBox="0 0 32 32">
    <path opacity=".4"
        d="M28.333 12.2a19.43 19.43 0 0 0-2.173-2.813l-5.027 5.026c.16.494.254 1.027.254 1.587A5.38 5.38 0 0 1 16 21.387c-.56 0-1.094-.094-1.587-.254L9.8 25.747c1.946 1.093 4.053 1.666 6.2 1.666 2.373 0 4.68-.693 6.787-1.986 2.106-1.307 4-3.214 5.546-5.64 1.334-2.08 1.334-5.494 0-7.587Z"
        fill="currentColor" />
    <path
        d="m18.693 13.307-5.387 5.386A3.869 3.869 0 0 1 12.186 16 3.821 3.821 0 0 1 16 12.187c1.04 0 2 .44 2.693 1.12Z"
        fill="currentColor" />
    <path opacity=".4"
        d="m24.333 7.667-4.52 4.52A5.315 5.315 0 0 0 16 10.613 5.38 5.38 0 0 0 10.613 16c0 1.493.6 2.84 1.574 3.813l-4.507 4.52h-.013c-1.48-1.2-2.84-2.733-4-4.546-1.334-2.094-1.334-5.494 0-7.587 1.546-2.427 3.44-4.333 5.546-5.64C11.32 5.28 13.627 4.573 16 4.573c2.973 0 5.853 1.094 8.333 3.094Z"
        fill="currentColor" />
    <path
        d="M19.813 16A3.821 3.821 0 0 1 16 19.813c-.08 0-.147 0-.227-.026l4.014-4.014c.026.08.026.147.026.227ZM29.027 2.973c-.4-.4-1.054-.4-1.454 0l-24.6 24.614c-.4.4-.4 1.053 0 1.453a1.01 1.01 0 0 0 1.44-.013L29.027 4.413a.991.991 0 0 0 0-1.44Z"
        fill="currentColor" />
</svg>