<svg fill="none" xmlns="http://www.w3.org/2000/svg" viewBox="0 0 32 32">
    <path opacity=".4"
        d="M16 29.333c7.364 0 13.333-5.97 13.333-13.333 0-7.364-5.97-13.333-13.333-13.333C8.636 2.667 2.666 8.637 2.666 16c0 7.364 5.97 13.333 13.334 13.333Z"
        fill="currentColor" />
    <path
        d="M16 18.333c.547 0 1-.453 1-1v-6.666c0-.547-.453-1-1-1-.547 0-1 .453-1 1v6.666c0 .547.453 1 1 1ZM17.227 20.827a1.54 1.54 0 0 0-.28-.44 1.538 1.538 0 0 0-.44-.28 1.333 1.333 0 0 0-1.014 0c-.16.066-.306.16-.44.28-.12.133-.213.28-.28.44-.066.16-.107.333-.107.506 0 .174.04.347.107.507.067.173.16.307.28.44.133.12.28.213.44.28.16.067.333.107.507.107.173 0 .346-.04.506-.107.16-.067.307-.16.44-.28.12-.133.214-.267.28-.44.067-.16.107-.333.107-.507 0-.173-.04-.346-.106-.506Z"
        fill="currentColor" />
</svg>