<svg fill="none" xmlns="http://www.w3.org/2000/svg" viewBox="0 0 28 30">
    <path
        d="M12.033 2.813h-1.566C9.652 2.813 9 2.187 9 1.405S9.652 0 10.467 0h6.066C17.348 0 18 .625 18 1.406c0 .782-.652 1.407-1.467 1.407h-1.566v24.375h1.566c.815 0 1.467.625 1.467 1.406 0 .781-.652 1.406-1.467 1.406h-6.066C9.652 30 9 29.375 9 28.594c0-.782.652-1.407 1.467-1.407h1.566V2.814Z"
        fill="currentColor" />
    <g opacity=".4" fill="currentColor">
        <path
            d="M11 3.667H8.413C3.56 3.667.667 6.56.667 11.413v7.16c0 4.867 2.893 7.76 7.746 7.76H11V3.667ZM16 26.333h3.573c4.854 0 7.747-2.893 7.747-7.746v-7.174c.013-4.853-2.88-7.746-7.733-7.746H16v22.666Z" />
    </g>
</svg>