<svg xmlns="http://www.w3.org/2000/svg" fill="none" viewBox="0 0 20 20">
  <g clip-path="url(#a)">
    <path fill="currentColor" d="M9.997 18.333a8.333 8.333 0 1 0 0-16.667 8.333 8.333 0 0 0 0 16.667Z"/>
    <path fill="#fff" d="M10 11.458a.63.63 0 0 0 .625-.625V6.666A.63.63 0 0 0 10 6.041a.63.63 0 0 0-.625.625v4.167a.63.63 0 0 0 .625.625ZM10.764 13.016a.963.963 0 0 0-.175-.275.964.964 0 0 0-.275-.175.834.834 0 0 0-.633 0c-.1.042-.192.1-.275.175a.962.962 0 0 0-.175.275.83.83 0 0 0-.067.317.83.83 0 0 0 .067.317.86.86 0 0 0 .175.275.96.96 0 0 0 .275.175c.1.041.208.066.316.066a.83.83 0 0 0 .317-.066c.1-.042.192-.1.275-.175a.86.86 0 0 0 .175-.275.83.83 0 0 0 .067-.317.83.83 0 0 0-.067-.317Z"/>
  </g>
  <defs>
    <clipPath id="a">
      <path fill="#fff" d="M0 0h20v20H0z"/>
    </clipPath>
  </defs>
</svg>