<svg fill="none" xmlns="http://www.w3.org/2000/svg" viewBox="0 0 32 32">
    <path
        d="M27.387 25.387a.99.99 0 0 1-.707.293.99.99 0 0 1-.706-.293l-6.6-6.6.706-.707.707-.707 6.6 6.6a1.006 1.006 0 0 1 0 1.414Z"
        fill="currentColor" />
    <path opacity=".4"
        d="m8.627 12.373 7.733 7.734c.52.52.52 1.36 0 1.88l-1.2 1.213a2.72 2.72 0 0 1-3.853 0L5.52 17.413a2.728 2.728 0 0 1 0-3.84l1.214-1.213a1.357 1.357 0 0 1 1.893.013Z"
        fill="currentColor" />
    <path
        d="m24.787 13.587-5.08 5.066a1.352 1.352 0 0 1-1.92 0l-7.694-7.693a1.352 1.352 0 0 1 0-1.92l5.08-5.08a2.728 2.728 0 0 1 3.84 0L24.8 9.747c1.04 1.053 1.04 2.76-.013 3.84ZM10.667 29h-8c-.547 0-1-.453-1-1 0-.547.453-1 1-1h8c.547 0 1 .453 1 1 0 .547-.453 1-1 1Z"
        fill="currentColor" />
</svg>