<svg fill="none" xmlns="http://www.w3.org/2000/svg" viewBox="0 0 28 28">
    <path opacity=".4"
        d="M27.334 21.404c0 3.268-2.707 5.93-6.033 5.93h-6.615c-3.319 0-6.02-2.654-6.02-5.917V6.596c0-3.27 2.708-5.93 6.035-5.93h6.612c3.32 0 6.02 2.654 6.02 5.917v14.821Z"
        fill="currentColor" />
    <path
        d="m.961 14.727 3.795 3.879a.98.98 0 0 0 1.414-.003 1.047 1.047 0 0 0-.003-1.452l-2.079-2.124H17.27c.552 0 1-.46 1-1.027 0-.568-.448-1.026-1-1.026H4.089l2.078-2.124c.391-.4.392-1.05.003-1.452a.986.986 0 0 0-.71-.303.987.987 0 0 0-.704.3L.96 13.272a1.043 1.043 0 0 0 0 1.455Z"
        fill="currentColor" />
</svg>