<svg fill="none" xmlns="http://www.w3.org/2000/svg" viewBox="0 0 28 24">
    <path opacity=".4"
        d="M27.333 17.254A6.729 6.729 0 0 1 20.627 24H7.4c-3.707 0-6.733-3-6.733-6.72v-.013s.008-5.901.018-8.87a.665.665 0 0 1 1.077-.522c3.168 2.513 8.834 7.096 8.905 7.156a5.423 5.423 0 0 0 3.373 1.187 5.351 5.351 0 0 0 3.373-1.202c.07-.046 5.61-4.492 8.825-7.046a.666.666 0 0 1 1.082.52c.013 2.945.013 8.764.013 8.764Z"
        fill="currentColor" />
    <path
        d="M26.635 3.565A6.714 6.714 0 0 0 20.707 0H7.4a6.713 6.713 0 0 0-5.928 3.565 1.151 1.151 0 0 0 .295 1.437l9.9 7.919c.693.56 1.533.838 2.373.838h.027c.84 0 1.68-.278 2.373-.838l9.9-7.919c.43-.344.553-.95.295-1.437Z"
        fill="currentColor" />
</svg>