<svg fill="none" xmlns="http://www.w3.org/2000/svg" viewBox="0 0 27 26">
    <path fill-rule="evenodd" clip-rule="evenodd"
        d="M11 6.13c-.107.006-.213.011-.32.015H6.078A5.083 5.083 0 0 0 1 11.223v1.846a5.083 5.083 0 0 0 5.077 5.077H6.6l.066-.115h.93l-.064.114h2.76l.066-.114H11V6.13Z"
        fill="currentColor" stroke="currentColor" stroke-width="1.5" />
    <path opacity=".4"
        d="M12 18.031h.29l-.062.148c3.264.255 6.539 1.71 9.281 4.137a1.796 1.796 0 0 0 2.894-.752A28.337 28.337 0 0 0 26 12.153a28.349 28.349 0 0 0-1.596-9.411 1.799 1.799 0 0 0-1.245-1.154 1.805 1.805 0 0 0-1.65.399C18.717 4.463 15.349 5.927 12 6.13V18.03Z"
        fill="currentColor" stroke="currentColor" stroke-width="1.5" />
    <path opacity=".4" fill-rule="evenodd" clip-rule="evenodd"
        d="m5 18.543.31 4.384a3.011 3.011 0 0 0 6.008-.426l-.282-3.97c-.089.008-.18.012-.27.012H5Z" fill="currentColor" />
</svg>