<svg fill="none" xmlns="http://www.w3.org/2000/svg" viewBox="0 0 28 27">
    <path opacity=".4"
        d="M22.793 5.556v12.746c0 2.388-.86 4.179-2.402 5.04a4.165 4.165 0 0 1-2.04.513c-1.111 0-2.305-.375-3.527-1.138l-4.054-2.541a1.797 1.797 0 0 0-.917-.264H8.446V3.945h1.407c.32 0 .639-.097.917-.264l4.054-2.54C16.85-.123 18.836-.345 20.39.516c1.542.86 2.402 2.652 2.402 5.04Z"
        fill="currentColor" />
    <path
        d="M7.405 3.946v15.967H5.207C1.847 19.913 0 18.066 0 14.706V9.153c0-3.36 1.847-5.207 5.207-5.207h2.198ZM23.834 8.265c0-.277.225-.504.5-.47a4.166 4.166 0 0 1 0 8.27c-.275.033-.5-.194-.5-.47v-7.33ZM2.893 21.299c0-.261.211-.473.472-.473h3.22c.261 0 .473.212.473.473v3.114a2.083 2.083 0 0 1-4.165 0V21.3Z"
        fill="currentColor" />
</svg>