<svg fill="none" xmlns="http://www.w3.org/2000/svg" viewBox="0 0 28 28">
  <g clip-path="url(#a)">
    <path
      d="M10.344 3.142c.676-.23 1.297.389 1.247 1.102-.02.27-.03.543-.03.818 0 6.282 5.093 11.374 11.375 11.374.239 0 .477-.007.712-.022.714-.044 1.326.583 1.09 1.257-1.55 4.436-5.773 7.619-10.74 7.619-6.28 0-11.373-5.093-11.373-11.374 0-5.003 3.23-9.252 7.719-10.774Z"
      fill="currentColor" />
    <path
      d="M23.716 7.427a.447.447 0 0 0-.13.394l.362 1.999c.03.17-.041.34-.183.439a.447.447 0 0 1-.475.032l-1.8-.938a.46.46 0 0 0-.203-.053h-.11a.33.33 0 0 0-.11.036l-1.8.943c-.088.045-.189.06-.288.045a.452.452 0 0 1-.361-.517l.361-1.998a.455.455 0 0 0-.13-.398l-1.466-1.422a.439.439 0 0 1-.11-.46.456.456 0 0 1 .361-.304l2.02-.293a.452.452 0 0 0 .357-.247l.89-1.824a.423.423 0 0 1 .081-.11l.037-.028a.274.274 0 0 1 .065-.053l.044-.017.07-.028h.17a.454.454 0 0 1 .358.244l.902 1.816a.451.451 0 0 0 .337.247l2.019.293a.46.46 0 0 1 .37.305.441.441 0 0 1-.118.459l-1.52 1.438Z"
      fill="currentColor" opacity=".4" />
  </g>
  <defs>
    <clipPath id="a">
      <path d="M0 0h28v28H0z" />
    </clipPath>
  </defs>
</svg>