<svg fill="none" xmlns="http://www.w3.org/2000/svg" viewBox="0 0 32 32">
    <path opacity=".4"
        d="M22.666 27.333H9.333c-4 0-6.667-2-6.667-6.666v-9.334c0-4.666 2.667-6.666 6.667-6.666h13.333c4 0 6.667 2 6.667 6.666v9.334c0 4.666-2.666 6.666-6.666 6.666Z"
        fill="currentColor" />
    <path
        d="M16 20a4 4 0 1 0 0-8 4 4 0 0 0 0 8ZM25.334 10.333h-4c-.547 0-1-.453-1-1 0-.546.453-1 1-1h4c.546 0 1 .454 1 1 0 .547-.454 1-1 1ZM10.666 23.667h-4c-.546 0-1-.454-1-1 0-.547.454-1 1-1h4c.547 0 1 .453 1 1 0 .546-.453 1-1 1Z"
        fill="currentColor" />
</svg>