<svg fill="none" xmlns="http://www.w3.org/2000/svg" viewBox="0 0 32 32">
    <path opacity=".4"
        d="M22.666 27.333H9.333c-4 0-6.667-2-6.667-6.666v-9.334c0-4.666 2.667-6.666 6.667-6.666h13.333c4 0 6.667 2 6.667 6.666v9.334c0 4.666-2.666 6.666-6.666 6.666Z"
        fill="currentColor" />
    <path
        d="M16 20a4 4 0 1 0 0-8 4 4 0 0 0 0 8ZM6 14.333c-.547 0-1-.453-1-1v-2A4.342 4.342 0 0 1 9.333 7h2c.547 0 1 .453 1 1 0 .547-.453 1-1 1h-2A2.344 2.344 0 0 0 7 11.333v2c0 .547-.453 1-1 1ZM26 14.333c-.547 0-1-.453-1-1v-2A2.344 2.344 0 0 0 22.666 9h-2c-.546 0-1-.453-1-1 0-.547.454-1 1-1h2A4.342 4.342 0 0 1 27 11.333v2c0 .547-.453 1-1 1ZM11.333 25h-2A4.342 4.342 0 0 1 5 20.667v-2c0-.547.453-1 1-1 .547 0 1 .453 1 1v2A2.344 2.344 0 0 0 9.333 23h2c.547 0 1 .453 1 1 0 .547-.453 1-1 1ZM22.666 25h-2c-.546 0-1-.453-1-1 0-.547.454-1 1-1h2A2.344 2.344 0 0 0 25 20.667v-2c0-.547.453-1 1-1 .547 0 1 .453 1 1v2A4.342 4.342 0 0 1 22.666 25Z"
        fill="currentColor" />
</svg>