<svg fill="none" xmlns="http://www.w3.org/2000/svg" viewBox="0 0 28 28">
    <path opacity=".2"
        d="M14 27.333C6.635 27.333.667 21.363.667 14 .667 6.636 6.635.666 14 .666c7.363 0 13.334 5.97 13.334 13.334S21.363 27.333 14 27.333Z"
        fill="currentColor" />
    <path
        d="M15.595 8.028c0 .881-.716 1.597-1.595 1.597a1.6 1.6 0 0 1-1.597-1.597 1.6 1.6 0 0 1 1.598-1.598c.878 0 1.594.716 1.594 1.598Zm0 5.972c0 .881-.716 1.597-1.595 1.597A1.6 1.6 0 0 1 12.404 14a1.6 1.6 0 0 1 1.598-1.598c.878 0 1.594.716 1.594 1.598Zm0 5.972c0 .882-.716 1.598-1.595 1.598a1.6 1.6 0 0 1-1.597-1.598 1.6 1.6 0 0 1 1.598-1.597c.878 0 1.594.716 1.594 1.597Z"
        fill="currentColor" />
</svg>