<svg fill="none" xmlns="http://www.w3.org/2000/svg" viewBox="0 0 24 28">
    <path opacity=".4"
        d="M21.078 10.028c-.602 0-1.4-.013-2.392-.013-2.421 0-4.412-2.004-4.412-4.448V1.279a.608.608 0 0 0-.603-.612H6.618C3.327.667.667 3.368.667 6.679v14.366c0 3.474 2.786 6.288 6.226 6.288h10.502c3.28 0 5.938-2.684 5.938-5.997V10.628a.604.604 0 0 0-.603-.61c-.564.003-1.24.01-1.652.01Z"
        fill="currentColor" />
    <path opacity=".4"
        d="M17.445 1.423c-.398-.415-1.094-.13-1.094.445v3.516a2.702 2.702 0 0 0 2.689 2.688c.93.011 2.22.014 3.316.011a.636.636 0 0 0 .457-1.077c-1.406-1.463-3.925-4.084-5.368-5.583Z"
        fill="currentColor" />
    <path
        d="M15.224 17.857a.993.993 0 1 1 0 1.985H7.965a.992.992 0 1 1 0-1.985h7.259Zm-2.745-6.659a.993.993 0 1 1 0 1.985H7.965a.992.992 0 1 1 0-1.985h4.514Z"
        fill="currentColor" />
</svg>