<svg fill="none" xmlns="http://www.w3.org/2000/svg" viewBox="0 0 24 25">
    <path
        d="M24 16.04v1.66c0 .275-.012.553-.036.828-.336 3.791-2.97 6.269-6.77 6.269H6.807c-1.924 0-3.547-.625-4.714-1.757A5.512 5.512 0 0 1 .95 21.561c.397-.482.842-1.01 1.275-1.54a118.8 118.8 0 0 0 1.888-2.31c.66-.817 2.404-2.971 4.821-1.96.493.204.926.493 1.323.746.974.65 1.383.842 2.068.469.758-.41 1.25-1.215 1.768-2.058.276-.446.553-.878.853-1.275 1.31-1.708 3.33-2.165 5.014-1.155.842.505 1.563 1.143 2.237 1.792.144.144.288.277.42.41.18.18.782.782 1.383 1.36Z"
        fill="currentColor" />
    <path opacity=".4"
        d="M17.206.797h-10.4C2.729.797 0 3.647 0 7.893V17.7c0 1.478.337 2.79.95 3.862.397-.483.842-1.011 1.274-1.542a115.1 115.1 0 0 0 1.888-2.308c.662-.818 2.405-2.972 4.822-1.961.493.204.926.493 1.323.746.973.65 1.382.842 2.068.468.757-.408 1.25-1.214 1.767-2.058.277-.445.553-.877.854-1.274 1.31-1.708 3.33-2.165 5.014-1.155.842.506 1.563 1.143 2.236 1.792.145.144.289.278.421.41.18.18.782.78 1.383 1.36V7.893C24 3.648 21.27.797 17.206.797Z"
        fill="currentColor" />
    <path
        d="M11.345 8.953c0 1.69-1.408 3.097-3.097 3.097-1.688 0-3.096-1.407-3.096-3.097S6.56 5.855 8.248 5.855c1.69 0 3.097 1.408 3.097 3.098Z"
        fill="currentColor" />
</svg>