<svg xmlns="http://www.w3.org/2000/svg" fill="none" viewBox="0 0 28 29">
  <g clip-path="url(#a)">
    <path fill="currentColor" fill-rule="evenodd" d="M10.5 26.167h7c5.834 0 8.167-2.334 8.167-8.167v-7c0-5.833-2.334-8.167-8.167-8.167h-7c-5.833 0-8.166 2.334-8.166 8.167v7c0 5.833 2.333 8.167 8.166 8.167ZM9.25 14.5c0-.69.56-1.25 1.25-1.25h2.25V11a1.25 1.25 0 1 1 2.5 0v2.25h2.25a1.25 1.25 0 0 1 0 2.5h-2.25V18a1.25 1.25 0 0 1-2.5 0v-2.25H10.5c-.69 0-1.25-.56-1.25-1.25Z" clip-rule="evenodd"/>
  </g>
  <defs>
    <clipPath id="a">
      <path fill="#fff" d="M0 .5h28v28H0z"/>
    </clipPath>
  </defs>
</svg>