<svg fill="none" xmlns="http://www.w3.org/2000/svg" viewBox="0 0 32 32">
    <path opacity=".4"
        d="M27.555 14.591a1.43 1.43 0 0 0-1.444 1.444c-.02 2.697-1.06 5.22-2.947 7.107a10.054 10.054 0 0 1-7.145 2.966c-2.696 0-5.239-1.06-7.145-2.966-.058-.058-.097-.115-.154-.173h1.598c.79 0 1.445-.655 1.445-1.445s-.655-1.444-1.445-1.444H5.214c-.79 0-1.444.655-1.444 1.444v5.104c0 .79.655 1.445 1.444 1.445.79 0 1.445-.655 1.445-1.445v-1.637c.058.058.115.135.173.212a12.94 12.94 0 0 0 9.187 3.813 12.86 12.86 0 0 0 9.187-3.813c2.426-2.427 3.774-5.682 3.794-9.148 0-.81-.655-1.445-1.445-1.464Z"
        fill="currentColor" />
    <path
        d="M4.444 17.249c.79 0 1.426-.636 1.445-1.425a10.12 10.12 0 0 1 2.946-6.991 10.054 10.054 0 0 1 7.146-2.966c2.696 0 5.238 1.059 7.145 2.966.058.057.096.115.154.173H21.68c-.79 0-1.444.655-1.444 1.444 0 .79.655 1.445 1.444 1.445h5.104c.79 0 1.445-.655 1.445-1.445V5.366c0-.79-.655-1.444-1.445-1.444s-1.444.654-1.444 1.444v1.656c-.058-.058-.116-.135-.174-.212a12.94 12.94 0 0 0-9.186-3.813A12.86 12.86 0 0 0 6.794 6.81 12.787 12.787 0 0 0 3 15.785c-.02.79.616 1.445 1.425 1.464h.02Z"
        fill="currentColor" />
</svg>