<svg fill="none" xmlns="http://www.w3.org/2000/svg" viewBox="0 0 32 32">
    <path opacity=".4"
        d="M14.68 26.693c6.635 0 12.013-5.378 12.013-12.013S21.315 2.667 14.68 2.667 2.666 8.045 2.666 14.68s5.38 12.013 12.014 12.013Z"
        fill="currentColor" />
    <path
        d="M29.32 25.267C28.88 24.453 27.947 24 26.694 24c-.947 0-1.76.387-2.24 1.053-.48.667-.587 1.56-.294 2.454.574 1.733 1.574 2.12 2.12 2.186.08.014.16.014.254.014.586 0 1.493-.254 2.373-1.574.707-1.026.84-2.053.413-2.866Z"
        fill="currentColor" />
</svg>