<svg fill="none" xmlns="http://www.w3.org/2000/svg" viewBox="0 0 26 28">
    <path
        d="M13.016 17.773c-2.14 0-3.87-1.666-3.87-3.76 0-2.093 1.73-3.773 3.87-3.773s3.829 1.68 3.829 3.773c0 2.094-1.69 3.76-3.83 3.76Z"
        fill="currentColor" />
    <path opacity=".4"
        d="M25.306 17.16c-.258-.4-.626-.8-1.103-1.053-.382-.187-.627-.494-.845-.854-.695-1.146-.286-2.653.872-3.333a2.703 2.703 0 0 0 1.008-3.773l-.913-1.574a2.817 2.817 0 0 0-3.828-1.013c-1.2.64-2.74.213-3.434-.92-.218-.373-.34-.773-.314-1.173.041-.52-.122-1.014-.368-1.414-.504-.826-1.417-1.386-2.425-1.386h-1.921a2.926 2.926 0 0 0-2.412 1.386 2.38 2.38 0 0 0-.382 1.414c.028.4-.095.8-.313 1.173-.695 1.133-2.235 1.56-3.42.92a2.833 2.833 0 0 0-3.843 1.013L.752 8.147a2.725 2.725 0 0 0 1.009 3.773c1.158.68 1.567 2.187.885 3.333-.231.36-.477.667-.858.854-.463.253-.872.653-1.09 1.053-.504.827-.477 1.867.027 2.733l.94 1.6a2.845 2.845 0 0 0 2.426 1.387c.463 0 1.008-.133 1.444-.4.34-.227.75-.307 1.2-.307 1.348 0 2.48 1.107 2.506 2.427 0 1.533 1.254 2.733 2.835 2.733h1.853c1.567 0 2.82-1.2 2.82-2.733.041-1.32 1.172-2.427 2.521-2.427.436 0 .845.08 1.2.307.435.267.967.4 1.444.4a2.84 2.84 0 0 0 2.411-1.387l.954-1.6c.49-.893.532-1.906.027-2.733Z"
        fill="currentColor" />
</svg>