<svg fill="none" xmlns="http://www.w3.org/2000/svg" viewBox="0 0 32 32">
    <path opacity=".4"
        d="M13.987 2.973 7.334 5.467C5.8 6.04 4.547 7.853 4.547 9.493V19.4c0 1.573 1.04 3.64 2.307 4.587l5.733 4.28c1.88 1.413 4.973 1.413 6.853 0l5.733-4.28c1.267-.947 2.307-3.014 2.307-4.587V9.493c0-1.64-1.253-3.453-2.787-4.026L18.04 2.973c-1.133-.413-2.946-.413-4.053 0Z"
        fill="currentColor" />
    <path
        d="M15.867 15.067H16a2.841 2.841 0 0 0 2.747-2.84 2.857 2.857 0 0 0-2.854-2.854 2.857 2.857 0 0 0-2.853 2.854c.027 1.533 1.227 2.786 2.827 2.84ZM18.92 17.88c-1.614-1.067-4.227-1.067-5.854 0-.746.507-1.186 1.227-1.186 1.973 0 .76.426 1.454 1.186 1.96.814.534 1.867.814 2.92.814 1.054 0 2.12-.267 2.92-.814.747-.506 1.187-1.226 1.187-1.973.014-.76-.413-1.453-1.173-1.96Z"
        fill="currentColor" />
</svg>