<svg fill="none" xmlns="http://www.w3.org/2000/svg" viewBox="0 0 28 28">
    <path
        d="M.772.79A2.65 2.65 0 0 1 3.41.107l21.993 6.355a2.616 2.616 0 0 1 1.89 2.065c.194 1.02-.484 2.316-1.37 2.857l-6.876 4.199a1.789 1.789 0 0 1-2.2-.261L8.974 7.447a1.005 1.005 0 0 0-1.449 0 1.031 1.031 0 0 0 0 1.45l7.888 7.874a1.79 1.79 0 0 1 .264 2.199l-4.202 6.903a2.616 2.616 0 0 1-2.269 1.285c-.11 0-.232 0-.341-.015a2.657 2.657 0 0 1-2.228-1.887L.116 3.43A2.656 2.656 0 0 1 .771.79Z"
        fill="currentColor" />
    <path opacity=".4"
        d="M17.141 23.431c-.399.4-.399 1.05 0 1.45l1.868 1.866c.2.201.462.301.724.301a1.024 1.024 0 0 0 .724-1.75l-1.865-1.867c-.4-.399-1.05-.399-1.45 0Zm1.072-5.177c-.4.4-.4 1.05 0 1.45l1.867 1.866c.2.2.462.3.724.3a1.024 1.024 0 0 0 .724-1.75l-1.865-1.866c-.4-.4-1.05-.4-1.45 0Zm5.14-1.63c-.398.4-.398 1.05 0 1.45l1.868 1.866c.2.2.462.3.724.3a1.024 1.024 0 0 0 .724-1.75l-1.865-1.866c-.4-.4-1.05-.4-1.45 0Z"
        fill="currentColor" />
</svg>