<svg fill="none" xmlns="http://www.w3.org/2000/svg" viewBox="0 0 24 25">
    <path opacity=".4"
        d="M22.488 11.65v6.804a5.681 5.681 0 0 1-5.679 5.679H6.882a5.681 5.681 0 0 1-5.679-5.68V11.73c.863.93 2.09 1.465 3.419 1.465 1.431 0 2.805-.716 3.669-1.863.772 1.147 2.09 1.863 3.555 1.863 1.454 0 2.748-.682 3.532-1.818.875 1.125 2.226 1.818 3.635 1.818 1.374 0 2.624-.557 3.475-1.545Z"
        fill="currentColor" />
    <path
        d="M15.242.133H8.427l-.84 8.36c-.069.772.045 1.499.329 2.158.659 1.544 2.204 2.544 3.93 2.544 1.75 0 3.26-.977 3.941-2.533.205-.489.33-1.056.341-1.636v-.215L15.242.133Z"
        fill="currentColor" />
    <path opacity=".6"
        d="m23.613 8.106-.33-3.146c-.476-3.43-2.032-4.827-5.36-4.827H13.56l.84 8.519c.012.113.023.238.023.454.068.59.25 1.136.523 1.624.818 1.5 2.408 2.465 4.066 2.465 1.51 0 2.874-.67 3.725-1.852.682-.908.989-2.055.875-3.237ZM5.701.133C2.361.133.817 1.53.33 4.994L.022 8.118c-.114 1.215.216 2.396.931 3.316.864 1.125 2.192 1.76 3.67 1.76 1.657 0 3.248-.965 4.054-2.441a4.228 4.228 0 0 0 .545-1.715l.886-8.894H5.701V.133Z"
        fill="currentColor" />
    <path d="M11.108 17.636a2.834 2.834 0 0 0-2.533 2.828v3.669h6.53v-3.271c.012-2.374-1.385-3.499-3.997-3.226Z"
        fill="currentColor" />
</svg>