<svg fill="none" xmlns="http://www.w3.org/2000/svg" viewBox="0 0 32 32">
    <path
        d="M21.667 30a2.333 2.333 0 1 0 0-4.667 2.333 2.333 0 0 0 0 4.667ZM11 30a2.333 2.333 0 1 0 0-4.667A2.333 2.333 0 0 0 11 30Z"
        fill="currentColor" />
    <path opacity=".4"
        d="M6.453 5.253 6.186 8.52a1.057 1.057 0 0 0 1.067 1.147h20.413c.56 0 1.027-.427 1.067-.987.174-2.36-1.627-4.28-3.986-4.28H8.387a3.636 3.636 0 0 0-.814-1.613 3.494 3.494 0 0 0-2.546-1.12h-2.36c-.547 0-1 .453-1 1 0 .546.453 1 1 1h2.32c.413 0 .8.173 1.08.466.28.307.413.707.386 1.12Z"
        fill="currentColor" />
    <path
        d="M27.346 11.667H6.893c-.56 0-1.013.426-1.067.973l-.48 5.8c-.186 2.267 1.6 4.227 3.88 4.227h14.827c2 0 3.76-1.64 3.907-3.64l.44-6.227a1.043 1.043 0 0 0-1.054-1.133Z"
        fill="currentColor" />
</svg>