<svg fill="none" xmlns="http://www.w3.org/2000/svg" viewBox="0 0 32 32">
    <path opacity=".3"
        d="M14.88 3.208 7.547 5.955C6.147 6.488 5 8.142 5 9.648v10.8c0 1.08.707 2.507 1.573 3.147l7.334 5.48c1.293.973 3.413.973 4.706 0l7.334-5.48c.866-.653 1.573-2.067 1.573-3.147v-10.8c0-1.493-1.147-3.16-2.547-3.68L17.64 3.222c-.747-.294-2-.294-2.76-.014Z"
        fill="currentColor" />
    <path
        d="M14.48 19.435a.989.989 0 0 1-.706-.293l-2.147-2.147a1.006 1.006 0 0 1 0-1.413 1.006 1.006 0 0 1 1.413 0l1.44 1.44 5.027-5.027a1.006 1.006 0 0 1 1.413 0 1.006 1.006 0 0 1 0 1.413l-5.733 5.734c-.2.2-.453.293-.707.293Z"
        fill="currentColor" />
</svg>