<svg fill="none" xmlns="http://www.w3.org/2000/svg" viewBox="0 0 32 32">
    <path opacity=".4"
        d="M28.333 12.2C25.253 7.36 20.747 4.573 16 4.573c-2.373 0-4.68.694-6.787 1.987-2.106 1.307-4 3.213-5.546 5.64-1.334 2.093-1.334 5.493 0 7.587 3.08 4.853 7.586 7.626 12.333 7.626 2.373 0 4.68-.693 6.787-1.986 2.106-1.307 4-3.214 5.546-5.64 1.334-2.08 1.334-5.494 0-7.587ZM16 21.387A5.38 5.38 0 0 1 10.613 16 5.38 5.38 0 0 1 16 10.613 5.38 5.38 0 0 1 21.387 16 5.38 5.38 0 0 1 16 21.387Z"
        fill="currentColor" />
    <path d="M16 12.187a3.807 3.807 0 0 0 0 7.613c2.093 0 3.814-1.707 3.814-3.8A3.83 3.83 0 0 0 16 12.187Z"
        fill="currentColor" />
</svg>