<svg width="32" height="32" viewBox="0 0 32 32" fill="none" xmlns="http://www.w3.org/2000/svg">
    <path opacity="0.3"
        d="M14.88 3.20836L7.54667 5.95503C6.14667 6.48836 5 8.1417 5 9.64836V20.4484C5 21.5284 5.70667 22.955 6.57333 23.595L13.9067 29.075C15.2 30.0484 17.32 30.0484 18.6133 29.075L25.9467 23.595C26.8133 22.9417 27.52 21.5284 27.52 20.4484V9.64836C27.52 8.15503 26.3733 6.48836 24.9733 5.96836L17.64 3.2217C16.8933 2.92836 15.64 2.92836 14.88 3.20836Z"
        fill="currentColor" />
    <path
        d="M20.5177 21.3475C20.3426 21.3475 20.1661 21.3021 20.0043 21.2071L14.7547 18.0755C14.4525 17.8937 14.2666 17.5661 14.2666 17.2131V10.4645C14.2666 9.91095 14.7159 9.46167 15.2695 9.46167C15.823 9.46167 16.2723 9.91095 16.2723 10.4645V16.6435L21.0325 19.4822C21.5072 19.767 21.6637 20.3821 21.3802 20.8581C21.1917 21.1724 20.8587 21.3475 20.5177 21.3475Z"
        fill="currentColor" />
</svg>