<svg fill="none" xmlns="http://www.w3.org/2000/svg" viewBox="0 0 24 28">
    <path opacity=".4"
        d="M12.116 27.333c-.165 0-.33-.038-.48-.115l-4.801-2.485c-1.362-.706-2.428-1.498-3.26-2.422a10.99 10.99 0 0 1-2.852-7.298L.667 6.166c-.007-1.021.652-1.938 1.638-2.283L11.12.809a2.51 2.51 0 0 1 1.64-.01l8.85 2.97c.99.33 1.66 1.24 1.666 2.26l.056 8.855a10.99 10.99 0 0 1-2.754 7.327c-.823.936-1.88 1.74-3.228 2.46l-4.759 2.54a1.02 1.02 0 0 1-.476.122Z"
        fill="currentColor" />
    <path
        d="M11.093 17.095a1.018 1.018 0 0 1-.714-.283l-2.556-2.458a.963.963 0 0 1-.008-1.386 1.026 1.026 0 0 1 1.424-.009l1.839 1.768 4.49-4.427a1.026 1.026 0 0 1 1.424-.01.961.961 0 0 1 .01 1.387l-5.2 5.126c-.195.194-.451.29-.71.292Z"
        fill="currentColor" />
</svg>