<svg fill="none" xmlns="http://www.w3.org/2000/svg" viewBox="0 0 32 32">
    <path opacity=".4"
        d="M26.053 8.72 21.96 4.627a6.67 6.67 0 0 0-4.72-1.96h-6.573C6.667 2.667 4 5.333 4 9.333v13.334c0 4 2.667 6.666 6.667 6.666h10.666c4 0 6.667-2.666 6.667-6.666v-9.24a6.66 6.66 0 0 0-1.947-4.707Z"
        fill="currentColor" />
    <path
        d="M15.333 17.667v-5h-2c-2.2 0-4 1.8-4 4V18H15a.33.33 0 0 0 .333-.333ZM17 18h5.666v-1.333c0-2.2-1.8-4-4-4h-2v5A.33.33 0 0 0 17 18ZM15 19.333H9.333v1.334c0 2.2 1.8 4 4 4h2v-5a.33.33 0 0 0-.333-.334ZM16.666 19.667v5h2c2.2 0 4-1.8 4-4v-1.334H17a.33.33 0 0 0-.334.334Z"
        fill="currentColor" />
</svg>