<svg fill="none" xmlns="http://www.w3.org/2000/svg" viewBox="0 0 28 26">
    <path opacity=".4"
        d="m15.302 1.152 2.968 5.965c.219.432.636.733 1.118.8l6.668.97c.39.055.743.26.981.574.236.31.338.702.28 1.087-.046.32-.197.617-.428.843l-4.831 4.684a1.408 1.408 0 0 0-.428 1.285l1.19 6.584c.126.796-.4 1.545-1.19 1.696a1.558 1.558 0 0 1-.953-.152l-5.947-3.099a1.559 1.559 0 0 0-1.405 0l-5.948 3.099a1.524 1.524 0 0 1-2.043-.596 1.508 1.508 0 0 1-.155-.933l1.19-6.586a1.415 1.415 0 0 0-.428-1.286l-4.832-4.68a1.446 1.446 0 0 1-.038-2.045l.038-.038c.23-.234.531-.382.856-.42l6.668-.973c.48-.068.898-.366 1.118-.8l2.862-5.98a1.475 1.475 0 0 1 1.356-.817h.179c.497.06.93.368 1.154.818Z"
        fill="currentColor" />
    <path
        d="M13.99 22.223c-.26.008-.51.077-.737.201l-5.919 3.092a1.544 1.544 0 0 1-1.997-.615 1.475 1.475 0 0 1-.154-.925l1.182-6.572a1.47 1.47 0 0 0-.427-1.3l-4.834-4.68a1.458 1.458 0 0 1-.023-2.058l.023-.022c.229-.227.524-.376.842-.423L8.62 7.94a1.444 1.444 0 0 0 1.116-.8l2.9-6.055c.276-.488.805-.78 1.364-.748-.01.396-.01 21.617-.01 21.887Z"
        fill="currentColor" />
</svg>