<svg xmlns="http://www.w3.org/2000/svg" fill="none" viewBox="0 0 20 20">
    <g fill="currentColor" clip-path="url(#a)">
        <path d="M10 15.833a5.834 5.834 0 1 0 0-11.667 5.834 5.834 0 0 0 0 11.667ZM16.465 16.442c-.324.324-.83.347-1.155.023l-.047-.047a.836.836 0 0 1 0-1.178.836.836 0 0 1 1.179 0c.324.324.347.877.023 1.202Zm2.546-5.87a.853.853 0 0 1-.59.248h-.153a.83.83 0 1 1 0-1.662h.154a.83.83 0 0 1 .589 1.415Zm-8.415 8.415a.83.83 0 0 1-1.42-.583v-.153a.83.83 0 1 1 1.662 0v.153a.834.834 0 0 1-.242.583ZM16.49 4.68l-.047.047a.836.836 0 0 1-1.179 0 .836.836 0 0 1 0-1.178c.324-.324.878-.348 1.202-.024.324.324.348.831.024 1.155ZM4.75 16.418l-.047.047a.836.836 0 0 1-1.179 0 .836.836 0 0 1 0-1.178c.324-.324.878-.348 1.202-.024.324.324.348.831.024 1.155Zm5.845-14.107a.83.83 0 0 1-1.42-.583v-.153a.83.83 0 1 1 1.662 0v.153a.82.82 0 0 1-.242.583Zm-8.261 8.262a.854.854 0 0 1-.59.247l-.158-.006a.83.83 0 1 1 0-1.661h.153c.46 0 .83.37.83.83a.809.809 0 0 1-.235.59Zm2.392-5.87c-.324.325-.83.348-1.155.024l-.047-.047a.836.836 0 0 1 0-1.178.836.836 0 0 1 1.179 0c.324.324.347.878.023 1.202Z"/>
    </g>
    <defs>
        <clipPath id="a">
            <path fill="currentColor" d="M0 0h20v20H0z"/>
        </clipPath>
    </defs>
</svg>