<svg fill="none" xmlns="http://www.w3.org/2000/svg" viewBox="0 0 32 32">
    <path opacity=".4"
        d="M10.413 2.667h11.16c4.867 0 7.76 2.893 7.76 7.746v11.16c0 4.854-2.893 7.747-7.746 7.747H10.413c-4.853.013-7.747-2.88-7.747-7.733V10.413c0-4.853 2.894-7.746 7.747-7.746Z"
        fill="currentColor" />
    <path
        d="M18.56 11.973h-6.867l.44-.44a1.006 1.006 0 0 0 0-1.413 1.006 1.006 0 0 0-1.413 0l-2.094 2.093a1.006 1.006 0 0 0 0 1.414l2.094 2.093c.2.2.453.293.706.293a.989.989 0 0 0 .707-.293 1.006 1.006 0 0 0 0-1.413l-.347-.347h6.774a3.11 3.11 0 0 1 3.106 3.107 3.101 3.101 0 0 1-3.106 3.106H12c-.547 0-1 .454-1 1 0 .547.453 1 1 1h6.56a5.116 5.116 0 0 0 5.106-5.106c0-2.814-2.293-5.094-5.106-5.094Z"
        fill="currentColor" />
</svg>