<svg fill="none" xmlns="http://www.w3.org/2000/svg" viewBox="0 0 32 32">
    <path opacity=".4"
        d="M28.12 28.667a.66.66 0 0 1-.667.666H4.547a.66.66 0 0 1-.667-.666c0-5.52 5.44-10 12.12-10 1.373 0 2.707.186 3.933.546a5.363 5.363 0 0 0-1.267 3.454c0 1 .28 1.946.774 2.746.266.454.613.867 1.013 1.214A5.227 5.227 0 0 0 24 28c1.493 0 2.84-.613 3.8-1.6.213.72.32 1.48.32 2.267Z"
        fill="currentColor" />
    <path
        d="M26.756 18.102a5.344 5.344 0 0 0-1.518-.613 5.273 5.273 0 0 0-1.235-.16 5.317 5.317 0 0 0-3.563 1.376c-1.094.962-1.763 2.385-1.773 3.96 0 1.49.613 2.857 1.622 3.828A5.343 5.343 0 0 0 24.003 28c1 0 1.943-.283 2.744-.782a4.79 4.79 0 0 0 1.216-1.01 5.199 5.199 0 0 0 1.377-3.544 5.307 5.307 0 0 0-2.584-4.563Zm.264 4.563c0 .547-.452 1-.999 1h-1.037v.999c0 .546-.453.999-1 .999-.556-.01-.999-.453-.999-1v-.999l-.952.01c-.556-.01-1-.453-1.009-1.01.01-.555.453-.998 1.009-1.008l.952.01v-1c0-.547.443-.99 1-1 .547 0 .999.453.999 1v1h1.037c.547 0 1 .452 1 .999ZM16 16a6.667 6.667 0 1 0 0-13.333A6.667 6.667 0 0 0 16 16Z"
        fill="currentColor" />
</svg>