<svg fill="none" xmlns="http://www.w3.org/2000/svg" viewBox="0 0 32 32">
    <path
        d="M22.2 26.933v.387a12.685 12.685 0 0 1-6.867 2.013c-2.573 0-4.973-.773-6.973-2.093v-.307c0-3.106 3.107-5.64 6.92-5.64 3.827 0 6.92 2.534 6.92 5.64Z"
        fill="currentColor" />
    <path opacity=".4"
        d="M28 16.667c0 4.466-2.307 8.386-5.8 10.653v-.387c0-3.106-3.093-5.64-6.92-5.64-3.813 0-6.92 2.534-6.92 5.64v.307c-3.427-2.267-5.693-6.147-5.693-10.573C2.667 9.667 8.332 4 15.332 4c1.747 0 3.414.347 4.934.987A5.406 5.406 0 0 0 20 6.667c0 1 .28 1.946.773 2.746.267.454.614.867 1.014 1.214A5.227 5.227 0 0 0 25.332 12c.587 0 1.147-.093 1.667-.28.64 1.52 1 3.2 1 4.947Z"
        fill="currentColor" />
    <path
        d="M23.85 1.013a6.403 6.403 0 0 0-4.942 1.888 6.508 6.508 0 0 0-1.907 4.696 6.43 6.43 0 0 0 .689 2.831 6.6 6.6 0 0 0 1.218 1.68 6.369 6.369 0 0 0 3.034 1.704c.62.161 1.275.219 1.918.173a6.367 6.367 0 0 0 4.24-1.876 6.001 6.001 0 0 0 1.196-1.68 6.354 6.354 0 0 0 .505-4.49 6.085 6.085 0 0 0-.77-1.83 5.848 5.848 0 0 0-.93-1.208 6.47 6.47 0 0 0-4.252-1.888Zm2.205 5.617-.85.852.896.897a1.231 1.231 0 0 1 0 1.727 1.226 1.226 0 0 1-1.723 0l-.897-.898-.85.852a1.226 1.226 0 0 1-1.724 0 1.231 1.231 0 0 1 0-1.727l.85-.851-.815-.818a1.231 1.231 0 0 1 0-1.726 1.226 1.226 0 0 1 1.724 0l.815.817.85-.852a1.226 1.226 0 0 1 1.724 0 1.22 1.22 0 0 1 0 1.727ZM15.28 19.64a3.747 3.747 0 1 0 0-7.493 3.747 3.747 0 0 0 0 7.493Z"
        fill="currentColor" />
</svg>