<svg fill="none" xmlns="http://www.w3.org/2000/svg" viewBox="0 0 32 32">
    <path opacity=".4"
        d="M11.853 25.347h-6.76c-.6 0-1.093-.494-1.093-1.094 0-.6.493-1.093 1.093-1.093h6.76c.6 0 1.094.493 1.094 1.093a1.09 1.09 0 0 1-1.094 1.094ZM11.853 17.293h-6.76C4.493 17.293 4 16.8 4 16.2s.493-1.093 1.093-1.093h6.76c.6 0 1.094.493 1.094 1.093s-.494 1.093-1.094 1.093Z"
        fill="currentColor" />
    <path
        d="M22.672 6.667a4.506 4.506 0 0 0-4.502 4.501c0 2.436 1.905 4.407 4.388 4.493a.763.763 0 0 1 .209 0h.067a4.49 4.49 0 0 0 4.34-4.493 4.506 4.506 0 0 0-4.502-4.501ZM27.486 18.181c-2.644-1.762-6.956-1.762-9.619 0-1.204.806-1.867 1.896-1.867 3.061 0 1.166.663 2.247 1.858 3.043 1.326.89 3.07 1.336 4.814 1.336 1.744 0 3.488-.445 4.814-1.336 1.195-.806 1.858-1.886 1.858-3.061-.01-1.166-.663-2.247-1.858-3.043Z"
        fill="currentColor" />
    <path opacity=".4"
        d="M11.853 9.227h-6.76C4.493 9.227 4 8.733 4 8.133c0-.6.493-1.093 1.093-1.093h6.76c.6 0 1.094.493 1.094 1.093s-.494 1.094-1.094 1.094Z"
        fill="currentColor" />
</svg>