<svg fill="none" xmlns="http://www.w3.org/2000/svg" viewBox="0 0 32 32">
    <path
        d="M24 17.333c-1.253 0-2.413.44-3.334 1.174-1.226.973-2 2.48-2 4.16 0 1 .28 1.946.774 2.746A5.293 5.293 0 0 0 24 28a5.207 5.207 0 0 0 3.506-1.333 4.79 4.79 0 0 0 1.054-1.254c.493-.8.773-1.746.773-2.746A5.332 5.332 0 0 0 24 17.333Zm2.76 4.76-2.84 2.627c-.187.173-.44.267-.68.267a.989.989 0 0 1-.707-.294l-1.32-1.32a1.006 1.006 0 0 1 0-1.413 1.006 1.006 0 0 1 1.413 0l.64.64 2.134-1.973c.4-.374 1.04-.347 1.413.053.373.4.347 1.027-.053 1.413Z"
        fill="currentColor" />
    <path opacity=".4"
        d="M28.12 28.667a.66.66 0 0 1-.667.666H4.547a.66.66 0 0 1-.667-.666c0-5.52 5.44-10 12.12-10 1.373 0 2.707.186 3.933.546a5.363 5.363 0 0 0-1.267 3.454c0 1 .28 1.946.774 2.746.266.454.613.867 1.013 1.214A5.227 5.227 0 0 0 24 28c1.493 0 2.84-.613 3.8-1.6.213.72.32 1.48.32 2.267Z"
        fill="currentColor" />
    <path d="M16 16a6.667 6.667 0 1 0 0-13.333A6.667 6.667 0 0 0 16 16Z" fill="currentColor" />
</svg>