<svg fill="none" xmlns="http://www.w3.org/2000/svg" viewBox="0 0 24 25">
    <path opacity=".4"
        d="M18.212 7.03a.866.866 0 0 0-.247 0 3.37 3.37 0 0 1-3.258-3.377A3.39 3.39 0 0 1 18.093.266a3.39 3.39 0 0 1 3.389 3.387 3.387 3.387 0 0 1-3.271 3.377ZM22.034 15.154c-1.313.879-3.154 1.207-4.854.985.446-.962.68-2.029.692-3.154 0-1.172-.258-2.286-.75-3.259 1.735-.235 3.575.094 4.9.973 1.852 1.22 1.852 3.224.012 4.455ZM5.211 7.03a.866.866 0 0 1 .246 0 3.37 3.37 0 0 0 3.26-3.377A3.39 3.39 0 0 0 5.327.266 3.39 3.39 0 0 0 1.94 3.653 3.387 3.387 0 0 0 5.211 7.03ZM5.34 12.985c0 1.137.246 2.216.692 3.189-1.653.175-3.377-.176-4.643-1.009-1.852-1.23-1.852-3.235 0-4.466 1.255-.844 3.025-1.184 4.69-.996a7.453 7.453 0 0 0-.74 3.282Z"
        fill="currentColor" />
    <path
        d="M11.87 16.525a1.327 1.327 0 0 0-.305 0 4.015 4.015 0 0 1-3.88-4.02 4.025 4.025 0 0 1 4.032-4.033 4.032 4.032 0 0 1 4.033 4.032c0 2.18-1.711 3.951-3.88 4.021ZM8.06 18.952c-1.77 1.184-1.77 3.13 0 4.302 2.016 1.348 5.322 1.348 7.338 0 1.77-1.184 1.77-3.13 0-4.302-2.004-1.348-5.31-1.348-7.338 0Z"
        fill="currentColor" />
</svg>