<svg xmlns="http://www.w3.org/2000/svg" fill="none" viewBox="0 0 25 25">
  <g fill="currentColor" clip-path="url(#a)">
    <path d="M12.498 2.5c-2.61995 0-4.74995 2.13-4.74995 4.75 0 2.57 2.01 4.65 4.62995 4.74.08-.01.16-.01.22 0h.07c2.56-.09 4.57-2.17 4.58-4.74 0-2.62-2.13-4.75-4.75-4.75Z" opacity=".4"/>
    <path d="M17.579 14.6489c-2.79-1.86-7.34-1.86-10.15002 0-1.27.85-1.97 2-1.97 3.23s.7 2.37 1.96 3.21c1.40001.94 3.24002 1.41 5.08002 1.41 1.84 0 3.68-.47 5.08-1.41 1.26-.85 1.96-1.99 1.96-3.23-.01-1.23-.7-2.37-1.96-3.21Z"/>
  </g>
  <defs>
    <clipPath id="a">
      <path fill="#fff" d="M.5.5h24v24H.5z"/>
    </clipPath>
  </defs>
</svg>