<svg xmlns="http://www.w3.org/2000/svg" fill="none" viewBox="0 0 56 56">
  <path fill="currentColor" d="M51.333 32.431v5.344c0 8.493-5.064 13.556-13.557 13.556H18.223c-5.95 0-10.244-2.496-12.25-6.93l.256-.186 11.48-7.7c1.867-1.26 4.504-1.12 6.16.326l.794.654c1.82 1.563 4.76 1.563 6.58 0l9.706-8.33c1.82-1.564 4.76-1.564 6.58 0l3.804 3.266Z"/>
  <path fill="currentColor" d="M48.931 18.664h-6.86c-2.963 0-4.736-1.773-4.736-4.737v-6.86c0-.933.186-1.726.513-2.403H18.225c-8.494 0-13.557 5.063-13.557 13.557v19.553c0 2.543.443 4.76 1.307 6.627l.256-.187 11.48-7.7c1.867-1.26 4.504-1.12 6.16.327l.794.653c1.82 1.563 4.76 1.563 6.58 0l9.706-8.33c1.82-1.563 4.76-1.563 6.58 0l3.804 3.267V18.15c-.677.326-1.47.513-2.404.513Z" opacity=".4"/>
  <path fill="currentColor" d="M21.003 24.212a5.553 5.553 0 1 0 0-11.106 5.553 5.553 0 0 0 0 11.106ZM48.933 2.328h-6.86c-2.964 0-4.737 1.773-4.737 4.737v6.86c0 2.963 1.773 4.736 4.737 4.736h6.86c2.963 0 4.736-1.773 4.736-4.736v-6.86c0-2.964-1.773-4.737-4.736-4.737Zm2.193 9.17a1.508 1.508 0 0 1-.957.42h-3.29l.024 3.244a1.475 1.475 0 0 1-.444 1.003 1.378 1.378 0 0 1-.956.396c-.77 0-1.4-.63-1.4-1.4v-3.266l-3.267.023a1.424 1.424 0 0 1-1.4-1.423c0-.77.63-1.4 1.4-1.4l3.267.023V5.851c0-.77.63-1.423 1.4-1.423.77 0 1.4.653 1.4 1.423l-.024 3.244h3.29c.77 0 1.4.63 1.4 1.4a1.587 1.587 0 0 1-.443 1.003Z"/>
</svg>