<svg fill="none" xmlns="http://www.w3.org/2000/svg" viewBox="0 0 30 24">
    <path opacity=".4" d="M22.85 10.529a3.834 3.834 0 0 0 3.296-3.788 3.833 3.833 0 0 0-3.208-3.781" stroke="currentColor"
        stroke-width="2.5" stroke-linecap="round" stroke-linejoin="round" />
    <path d="M25.305 15c1.801.27 3.058.9 3.058 2.2 0 .895-.592 1.476-1.549 1.842" stroke="currentColor" stroke-width="2.5"
        stroke-linecap="round" stroke-linejoin="round" />
    <path clip-rule="evenodd"
        d="M14.849 15.552c-4.286 0-7.946.649-7.946 3.242 0 2.592 3.638 3.26 7.946 3.26 4.285 0 7.944-.642 7.944-3.237s-3.636-3.265-7.944-3.265Z"
        stroke="currentColor" stroke-width="2.5" stroke-linecap="round" stroke-linejoin="round" />
    <path opacity=".4" clip-rule="evenodd"
        d="M14.849 11.85a5.091 5.091 0 1 0 0-10.184 5.092 5.092 0 0 0-5.092 5.092 5.072 5.072 0 0 0 5.055 5.093h.037Z"
        stroke="currentColor" stroke-width="2.5" stroke-linecap="round" stroke-linejoin="round" />
    <path opacity=".4" d="M6.846 10.529A3.833 3.833 0 0 1 3.55 6.74 3.833 3.833 0 0 1 6.758 2.96" stroke="currentColor"
        stroke-width="2.5" stroke-linecap="round" stroke-linejoin="round" />
    <path d="M4.392 15c-1.802.27-3.059.9-3.059 2.2 0 .895.592 1.476 1.55 1.842" stroke="currentColor" stroke-width="2.5"
        stroke-linecap="round" stroke-linejoin="round" />
</svg>