<svg fill="none" xmlns="http://www.w3.org/2000/svg" viewBox="0 0 26 26">
    <path opacity=".4"
        d="M18.028 1H7.972C3.604 1 1 3.604 1 7.972v10.056C1 22.396 3.604 25 7.972 25h10.056C22.396 25 25 22.396 25 18.028V7.972C25 3.604 22.396 1 18.028 1Z"
        stroke="currentColor" stroke-width="2" />
    <path d="M6 18.955h4.454M6 12.59h4.454M6 6.864h14" stroke="currentColor" stroke-width="2.5" stroke-linecap="round"
        stroke-linejoin="round" />
    <path
        d="M20.884 13.475a1.25 1.25 0 0 0-1.768-1.768l1.768 1.768Zm-6.859 3.323a1.25 1.25 0 1 0 1.768 1.768l-1.768-1.768Zm5.091-5.09-5.09 5.09 1.767 1.768 5.091-5.091-1.768-1.768Z"
        fill="currentColor" />
    <path
        d="M15.793 11.707a1.25 1.25 0 1 0-1.768 1.768l1.768-1.768Zm3.323 6.859a1.25 1.25 0 0 0 1.768-1.768l-1.768 1.768Zm-5.09-5.091 5.09 5.09 1.768-1.767-5.09-5.09-1.769 1.767Z"
        fill="currentColor" />
</svg>