<svg xmlns="http://www.w3.org/2000/svg" fill="none" viewBox="0 0 28 28">
    <path stroke="currentColor" stroke-linecap="round" stroke-linejoin="round" stroke-width="2"
        d="M24.5 6.976a118.652 118.652 0 0 0-11.69-.583c-2.31 0-4.62.117-6.93.35l-2.38.233" />
    <path stroke="currentColor" stroke-linecap="round" stroke-linejoin="round" stroke-width="2"
        d="m9.916 5.798.257-1.528c.186-1.108.326-1.936 2.298-1.936h3.057c1.971 0 2.123.874 2.298 1.948l.257 1.516"
        opacity=".34" />
    <path stroke="currentColor" stroke-linecap="round" stroke-linejoin="round" stroke-width="2"
        d="m21.991 10.663-.758 11.748c-.128 1.832-.233 3.255-3.489 3.255h-7.49c-3.255 0-3.36-1.423-3.488-3.255l-.758-11.748" />
    <path stroke="currentColor" stroke-linecap="round" stroke-linejoin="round" stroke-width="2"
        d="M12.05 19.25h3.886M11.084 14.584h5.833" opacity=".34" />
</svg>