<svg fill="none" xmlns="http://www.w3.org/2000/svg" viewBox="0 0 28 28">
    <path clip-rule="evenodd"
        d="M4.393 7.408a3.016 3.016 0 0 1 3.014-3.016H8.78c.795 0 1.559-.315 2.124-.876l.959-.96a3.015 3.015 0 0 1 4.264-.01l.012.01.96.96a3.01 3.01 0 0 0 2.124.876h1.37a3.016 3.016 0 0 1 3.017 3.016v1.37c0 .796.314 1.56.875 2.124l.96.96a3.015 3.015 0 0 1 .012 4.264l-.011.012-.96.96a3.008 3.008 0 0 0-.877 2.123v1.372a3.015 3.015 0 0 1-3.015 3.015h-1.371c-.796 0-1.56.316-2.124.877l-.96.959a3.014 3.014 0 0 1-4.264.012l-.012-.012-.959-.959a3.017 3.017 0 0 0-2.124-.877H7.407a3.015 3.015 0 0 1-3.014-3.015v-1.372a3.01 3.01 0 0 0-.878-2.123l-.958-.96a3.014 3.014 0 0 1-.012-4.264l.012-.012.958-.96a3.015 3.015 0 0 0 .877-2.125v-1.37Z"
        stroke="currentColor" stroke-width="2.5" stroke-linecap="round" stroke-linejoin="round" />
    <path opacity=".4" d="m10.573 17.426 6.854-6.853" stroke="currentColor" stroke-width="2.5" stroke-linecap="round"
        stroke-linejoin="round" />
    <path opacity=".4"
        d="M17.423 18.43a1 1 0 0 1-.707-.293 1.096 1.096 0 0 1-.213-.334.956.956 0 0 1 0-.76c.053-.12.12-.226.213-.32.373-.373 1.04-.373 1.413 0 .094.094.174.2.227.32.04.12.067.254.067.387 0 .135-.027.253-.067.373-.053.12-.133.24-.227.334a1 1 0 0 1-.706.293ZM10.57 11.577a.896.896 0 0 1-.374-.081 1.092 1.092 0 0 1-.333-.212 1.283 1.283 0 0 1-.214-.334.952.952 0 0 1 0-.76c.054-.12.12-.24.214-.32.386-.374 1.04-.374 1.413 0 .187.186.293.44.293.707a.888.888 0 0 1-.066.373c-.054.12-.134.227-.227.334a1.03 1.03 0 0 1-.707.293Z"
        fill="currentColor" />
</svg>