<svg fill="none" xmlns="http://www.w3.org/2000/svg" viewBox="0 0 32 32">
    <path
        d="m19.373 12.627-6.746 6.746a4.745 4.745 0 0 1-1.4-3.373A4.768 4.768 0 0 1 16 11.227c1.32 0 2.507.533 3.373 1.4Z"
        stroke="currentColor" stroke-width="2.5" stroke-linecap="round" stroke-linejoin="round" />
    <path
        d="M23.76 7.693c-2.334-1.76-5-2.72-7.76-2.72-4.707 0-9.094 2.774-12.147 7.574-1.2 1.88-1.2 5.04 0 6.92 1.053 1.653 2.28 3.08 3.613 4.226"
        stroke="currentColor" stroke-width="2.5" stroke-linecap="round" stroke-linejoin="round" />
    <path opacity=".4"
        d="M11.227 26.04c1.52.64 3.133.987 4.773.987 4.707 0 9.093-2.774 12.147-7.574 1.2-1.88 1.2-5.04 0-6.92-.44-.693-.92-1.346-1.414-1.96"
        stroke="currentColor" stroke-width="2.5" stroke-linecap="round" stroke-linejoin="round" />
    <path opacity=".4" d="M20.68 16.933c-.347 1.88-1.88 3.414-3.76 3.76" stroke="currentColor" stroke-width="2.5"
        stroke-linecap="round" stroke-linejoin="round" />
    <path d="m12.627 19.373-9.96 9.96M29.333 2.667l-9.96 9.96" stroke="currentColor" stroke-width="2.5"
        stroke-linecap="round" stroke-linejoin="round" />
</svg>