<svg fill="none" xmlns="http://www.w3.org/2000/svg" viewBox="0 0 26 26">
    <path fill-rule="evenodd" clip-rule="evenodd"
        d="M21.285 1.05c.287-.069.588-.067.874.007a1.8 1.8 0 0 1 1.245 1.154A28.349 28.349 0 0 1 25 11.621a28.338 28.338 0 0 1-1.597 9.412 1.798 1.798 0 0 1-2.894.752c-2.742-2.427-6.017-3.882-9.281-4.137l.062-.148h-.932l-.066.114h-2.76l.064-.114h-.93l-.066.115h-.523A5.083 5.083 0 0 1 1 12.538V10.69a5.083 5.083 0 0 1 5.077-5.077h4.604c3.452-.126 6.946-1.603 9.829-4.158.221-.197.487-.336.775-.405ZM3.14 15.474a4.159 4.159 0 0 0 2.936 1.218h4.154V6.537H6.077a4.158 4.158 0 0 0-4.154 4.154v1.846a4.158 4.158 0 0 0 1.218 2.936Zm19.16 5.612a.873.873 0 0 0 .232-.358 27.42 27.42 0 0 0 1.547-9.106 27.433 27.433 0 0 0-1.547-9.108.873.873 0 0 0-1.41-.366c-2.925 2.589-6.449 4.129-9.968 4.367v10.201c3.512.238 7.034 1.783 9.967 4.378a.873.873 0 0 0 1.18-.008Z"
        fill="currentColor" stroke="currentColor" stroke-width="1.5" />
    <path opacity=".4"
        d="M11.624 18.5h-.932l.27 3.645a1.385 1.385 0 0 1-2.77-.03L7.931 18.5H7l.271 3.65a2.308 2.308 0 0 0 4.615-.035l-.262-3.615Z"
        fill="currentColor" stroke="currentColor" stroke-width="1.5" />
</svg>