<svg fill="none" xmlns="http://www.w3.org/2000/svg" viewBox="0 0 29 27">
    <g opacity=".4">
        <mask id="a" fill="#fff">
            <path
                d="M23.737 5.556v12.746c0 2.388-.861 4.179-2.402 5.04a4.165 4.165 0 0 1-2.041.513c-1.111 0-2.305-.375-3.527-1.138l-4.054-2.541a1.799 1.799 0 0 0-.916-.264H9.39V3.945h1.407c.319 0 .638-.097.916-.264l4.054-2.54C17.794-.123 19.78-.345 21.335.516c1.54.86 2.402 2.652 2.402 5.04Z" />
        </mask>
        <path
            d="m21.335 23.342 1.214 2.185.005-.003-1.22-2.182Zm-5.568-.625-1.327 2.118.002.002 1.325-2.12Zm-4.054-2.541 1.328-2.118-.021-.013-.02-.013-1.287 2.144Zm-2.323-.264h-2.5v2.5h2.5v-2.5Zm0-15.967v-2.5h-2.5v2.5h2.5Zm2.323-.264 1.286 2.144.021-.012.02-.013-1.327-2.119Zm4.054-2.54L14.445-.981l-.005.003 1.327 2.119Zm5.568-.625 1.219-2.183-.008-.004L21.335.516Zm-.098 5.04v12.746h5V5.556h-5Zm0 12.746c0 1.834-.637 2.587-1.121 2.857l2.438 4.365c2.598-1.451 3.683-4.28 3.683-7.222h-5Zm-1.116 2.854a1.67 1.67 0 0 1-.827.2v5c1.112 0 2.23-.26 3.255-.829l-2.428-4.37Zm-.827.2c-.54 0-1.282-.184-2.202-.76l-2.65 4.24c1.523.953 3.171 1.52 4.852 1.52v-5Zm-2.2-.758-4.053-2.54-2.656 4.236 4.055 2.541 2.655-4.237ZM13 18.032a4.298 4.298 0 0 0-2.202-.62v5a.709.709 0 0 1-.37-.092l2.572-4.288Zm-2.202-.62H9.39v5h1.407v-5Zm1.093 2.5V3.945h-5v15.967h5ZM9.39 6.445h1.407v-5H9.39v5Zm1.407 0c.82 0 1.579-.246 2.202-.62l-2.572-4.287a.708.708 0 0 1 .37-.093v5ZM13.04 5.8l4.054-2.541L14.44-.978l-4.055 2.541L13.041 5.8Zm4.049-2.538c1.558-.971 2.541-.832 3.034-.559l2.422-4.374c-2.618-1.45-5.606-.865-8.101.69l2.645 4.243Zm3.026-.564c.484.27 1.12 1.023 1.12 2.858h5c0-2.942-1.084-5.772-3.682-7.223l-2.438 4.365Z"
            fill="currentColor" mask="url(#a)" />
    </g>
    <path
        d="M7.098 5.196v13.467H6.15c-1.457 0-2.4-.397-2.98-.977-.58-.58-.977-1.523-.977-2.98V9.153c0-1.458.397-2.4.978-2.98.58-.58 1.522-.977 2.979-.977h.948ZM26.028 14.563V9.296a2.915 2.915 0 0 1 0 5.268Z"
        stroke="currentColor" stroke-width="2.5" />
    <mask id="b" fill="#fff">
        <path
            d="M3.836 21.299c0-.261.211-.473.472-.473h3.22c.262 0 .473.212.473.473v3.114a2.083 2.083 0 1 1-4.165 0V21.3Z" />
    </mask>
    <path
        d="M4.308 23.326h3.22v-5h-3.22v5ZM5.501 21.3v3.114h5V21.3h-5Zm.835 3.114V21.3h-5v3.114h5Zm-.417-.417c.23 0 .417.187.417.417h-5a4.583 4.583 0 0 0 4.583 4.583v-5Zm-.418.417c0-.23.187-.417.418-.417v5a4.583 4.583 0 0 0 4.582-4.583h-5Zm2.028-1.087A2.028 2.028 0 0 1 5.5 21.3h5a2.972 2.972 0 0 0-2.972-2.973v5Zm-3.22-5A2.972 2.972 0 0 0 1.335 21.3h5c0 1.12-.908 2.027-2.028 2.027v-5Z"
        fill="currentColor" mask="url(#b)" />
</svg>