<svg fill="none" xmlns="http://www.w3.org/2000/svg" viewBox="0 0 28 28">
    <path clip-rule="evenodd"
        d="M26.013 8.698V19.3c0 3.928-2.459 6.699-6.387 6.699H8.374C4.446 26 2 23.23 2 19.3V8.699C2 4.769 4.459 2 8.374 2h11.252c3.928 0 6.387 2.77 6.387 6.698Z"
        stroke="currentColor" stroke-width="2.5" stroke-linecap="round" stroke-linejoin="round" />
    <path opacity=".4"
        d="m5.293 19.796 1.988-2.098a1.823 1.823 0 0 1 2.575-.078l1.22 1.238a1.865 1.865 0 0 0 2.636.026c.048-.047 3.036-3.67 3.036-3.67a2.194 2.194 0 0 1 3.09-.299c.062.052 2.885 2.95 2.885 2.95"
        stroke="currentColor" stroke-width="2.5" stroke-linecap="round" stroke-linejoin="round" />
    <path opacity=".4" clip-rule="evenodd" d="M11.838 10.303a2.281 2.281 0 1 1-4.563 0 2.281 2.281 0 0 1 4.563 0Z"
        stroke="currentColor" stroke-width="2.5" stroke-linecap="round" stroke-linejoin="round" />
</svg>