<svg fill="none" xmlns="http://www.w3.org/2000/svg" viewBox="0 0 28 26">
    <path clip-rule="evenodd"
        d="m15.472 2.57 2.437 4.867c.239.478.7.81 1.234.886l5.45.784c1.348.195 1.883 1.827.909 2.762l-3.942 3.787a1.605 1.605 0 0 0-.472 1.434l.93 5.347c.23 1.323-1.178 2.332-2.382 1.706l-4.872-2.526a1.664 1.664 0 0 0-1.528 0l-4.872 2.526c-1.204.626-2.611-.383-2.381-1.706l.929-5.347a1.604 1.604 0 0 0-.472-1.434L2.498 11.87c-.974-.935-.438-2.567.908-2.762l5.45-.784a1.64 1.64 0 0 0 1.236-.886l2.436-4.868c.602-1.203 2.342-1.203 2.944 0Z"
        stroke="currentColor" stroke-width="2.5" stroke-linecap="round" stroke-linejoin="round" />
</svg>