<svg fill="none" xmlns="http://www.w3.org/2000/svg" viewBox="0 0 28 26">
    <path clip-rule="evenodd"
        d="M21.81 24.222c2.5 0 4.524-2.025 4.524-4.524v-3.6a2.981 2.981 0 0 1-2.987-2.985 2.98 2.98 0 0 1 2.987-2.985l-.003-3.604A4.523 4.523 0 0 0 21.808 2H6.192a4.524 4.524 0 0 0-4.524 4.524l-.001 3.72c1.652 0 2.985 1.216 2.985 2.87a2.981 2.981 0 0 1-2.985 2.984v3.6a4.523 4.523 0 0 0 4.523 4.524h15.62Z"
        stroke="currentColor" stroke-width="2.5" stroke-linecap="round" stroke-linejoin="round" />
    <path opacity=".4" clip-rule="evenodd"
        d="m14 15.472 2.32 1.22a.297.297 0 0 0 .43-.312l-.444-2.585 1.879-1.828a.296.296 0 0 0-.164-.505l-2.595-.378-1.161-2.352a.296.296 0 0 0-.53 0l-1.162 2.352-2.594.378a.296.296 0 0 0-.164.505l1.878 1.828-.444 2.585a.297.297 0 0 0 .43.312l2.32-1.22Z"
        stroke="currentColor" stroke-width="2.5" stroke-linecap="round" stroke-linejoin="round" />
</svg>