<svg fill="none" xmlns="http://www.w3.org/2000/svg" viewBox="0 0 28 28">
    <path opacity=".4"
        d="M21.195 8.191a.727.727 0 0 0-.228 0 3.088 3.088 0 0 1-2.976-3.095A3.088 3.088 0 0 1 21.087 2a3.095 3.095 0 0 1 3.095 3.096 3.106 3.106 0 0 1-2.987 3.095ZM19.959 16.926c1.644.276 3.455-.012 4.727-.864 1.692-1.128 1.692-2.975 0-4.103-1.284-.852-3.12-1.14-4.763-.852M6.76 8.191a.726.726 0 0 1 .228 0 3.088 3.088 0 0 0 2.976-3.095A3.088 3.088 0 0 0 6.868 2a3.095 3.095 0 0 0-3.096 3.096A3.106 3.106 0 0 0 6.76 8.19ZM7.996 16.926c-1.644.276-3.455-.012-4.727-.864-1.692-1.128-1.692-2.975 0-4.103 1.284-.852 3.12-1.14 4.763-.852"
        stroke="currentColor" stroke-width="2.5" stroke-linecap="round" stroke-linejoin="round" />
    <path
        d="M13.998 17.154a.726.726 0 0 0-.227 0 3.088 3.088 0 0 1-2.976-3.095 3.088 3.088 0 0 1 3.095-3.096 3.095 3.095 0 0 1 3.096 3.096c-.012 1.68-1.332 3.047-2.988 3.095ZM10.507 20.934c-1.692 1.127-1.692 2.975 0 4.103 1.92 1.284 5.063 1.284 6.983 0 1.692-1.128 1.692-2.976 0-4.103-1.907-1.272-5.063-1.272-6.983 0Z"
        stroke="currentColor" stroke-width="2.5" stroke-linecap="round" stroke-linejoin="round" />
</svg>