<svg xmlns="http://www.w3.org/2000/svg" width="94.668" height="83.471" viewBox="0 0 94.668 83.471">
    <g data-name="Group 12208">
        <g data-name="Component 29 – 170">
            <g data-name="Group 1470" transform="translate(1.842 2.225)">
                <path data-name="Path 3042" d="M116.1 54.406a4.793 4.793 0 0 1 8.3 0l20.248 35.077 20.25 35.074a4.789 4.789 0 0 1-4.147 7.186h-81a4.791 4.791 0 0 1-4.145-7.188l20.248-35.073z" transform="translate(-74.734 -52.012)" style="fill:#eaf0fd"/>
                <path data-name="Path 3043" d="M163.317 386.35H76l-1.482 2.278a4.789 4.789 0 0 0 4.147 7.185h81a4.791 4.791 0 0 0 4.15-7.185z" transform="translate(-73.874 -315.566)" style="fill:#cdd9f4"/>
                <rect data-name="Rectangle 1168" width="6.904" height="5.524" rx="2.762" transform="translate(41.802 59.925)" style="fill:#f42f42"/>
                <rect data-name="Rectangle 1169" width="6.904" height="27.616" rx="3.452" transform="translate(41.802 28.164)" style="fill:#f42f42"/>
            </g>
        </g>
        <path data-name="Path 40596" d="M49.638 16.331a4.895 4.895 0 0 1 8.474 0l20.676 35.838L99.48 88a4.895 4.895 0 0 1-4.225 7.357H12.494a4.895 4.895 0 0 1-4.24-7.342l20.692-35.846z" transform="translate(-6.538 -12.887)" style="fill:none;stroke:#202e84;stroke-width:2px"/>
    </g>
</svg>
