<svg xmlns="http://www.w3.org/2000/svg" width="204.865" height="136.867" viewBox="0 0 204.865 136.867">
    <defs>
        <clipPath id="clip-path">
            <path id="Rectangle_1212" data-name="Rectangle 1212" class="cls-1" d="M0 0h204.864v136.867H0z"/>
        </clipPath>
        <clipPath id="clip-path-2">
            <path id="Rectangle_1213" data-name="Rectangle 1213" class="cls-1" d="M0 0h204.865v136.867H0z"/>
        </clipPath>
        <style>
            .cls-1{fill:none}.cls-2{clip-path:url(#clip-path)}
        </style>
    </defs>
    <g id="Group_12214" data-name="Group 12214">
        <g id="Group_1449" data-name="Group 1449">
            <g id="Group_1448" data-name="Group 1448" class="cls-2">
                <path id="Path_16" data-name="Path 16" d="M572.664 191.537a2.4 2.4 0 0 0 0 3.39l10.543 10.543a2.4 2.4 0 0 0 3.39 0l10.543-10.543a2.4 2.4 0 0 0 0-3.39l-10.54-10.543a2.4 2.4 0 0 0-3.39 0z" transform="translate(-410.062 -124.845)" style="fill:#ee2d24"/>
                <path id="Path_12" data-name="Path 12" d="M572.664 191.537a2.4 2.4 0 0 0 0 3.39l10.543 10.543a2.4 2.4 0 0 0 3.39 0l10.543-10.543a2.4 2.4 0 0 0 0-3.39l-10.54-10.543a2.4 2.4 0 0 0-3.39 0z" transform="translate(-396.062 -124.845)" style="fill:#352aff"/>
            </g>
        </g>
        <g id="Group_1451" data-name="Group 1451">
            <g id="Group_1450" data-name="Group 1450" style="clip-path:url(#clip-path-2)">
                <path id="Path_13" data-name="Path 13" d="M318.863 206.7c3.619 0 4.424 2.375 4.424 5.768v7.565h-3.217v-7.415c0-1.985-.44-3.468-2.451-3.468h-2.061v10.883h-5.58v-2.45h2.7v-8.433h-1.621v-2.45zm17.779 3.808c0 2.576-.955 4.122-3.582 4.323l3.456 5.2h-11v-2.45h5.994l-6.731-10.881h3.368l3.694 6.12c1.621-.025 1.734-.943 1.734-2.212V206.7h3.066zm5.3 9.526H338.7V206.7h3.242zm12.756 0h-10.755l.025-2.45h6.044v-8.433h-5.994V206.7h9.161v10.88h1.521zM368.13 206.7v6.434c0 5.178-1.646 6.9-5.6 6.9h-.88v-2.426h.415c2.312 0 2.9-.327 2.9-4.059v-4.4h-8.8V206.7zm-11.763 5.065h3.167V223.3h-3.167z" transform="translate(-214.648 -143.13)"/>
            </g>
        </g>
        <g id="Group_1453" data-name="Group 1453">
            <g id="Group_1452" data-name="Group 1452" class="cls-2">
                <path id="Path_14" data-name="Path 14" d="M101.135 213.91h3.308v-7.525h-3.308zm-4.8-7.525v7.057c0 3.447-2 3.876-4.735 3.876h-3.32l-1.136-10.933H84.1l1.25 13.4h7.436c4.217 0 6.527-2.3 6.527-6.931v-6.464zm-23.054 0v2.462h3.7c1.856 0 2.146 1.578 2.146 3.573v7.36h3.282v-7.5c0-3.409-.618-5.9-4.267-5.9zm-1.73 13.4-3.636-5.3c2.1-.328 3.421-1.7 3.421-4.318v-3.775h-3.03v4.091c0 1.313-.366 1.982-1.7 2.083l-4.078-6.174h-3.336l2.967 4.394c-2.386.417-3.068 2.411-3.068 4.532v4.47h3.055v-5.227c0-1.338.189-1.781 1.225-2.1l4.735 7.322zm-24.151-13.4v2.462h3.775c1.806 0 2.613.846 2.613 3.484v1.5c0 2.664-.833 3.484-2.613 3.484H47.45v2.462h4.242c3.523 0 5.3-1.73 5.3-5.353v-2.664c0-3.649-1.654-5.378-5.3-5.378zm-10.77 0v2.462h3.7c1.856 0 2.146 1.578 2.146 3.573v7.36h3.282v-7.5c0-3.409-.619-5.9-4.267-5.9zm-7.474 0v2.462h2.512v3.093c0 5.126-1.628 5.379-4.217 5.379h-.568l-1.363-10.933h-3.182l1.654 13.4h4.343c3.75 0 6.363-1.73 6.363-6.931v-6.464z" transform="translate(-15.468 -142.914)"/>
                <path id="Path_15" data-name="Path 15" d="M245.506 215.428a1.346 1.346 0 0 0 1.336-1.5v-7.442h-3v8.945z" transform="translate(-168.848 -142.982)"/>
            </g>
        </g>
    </g>
</svg>
