<svg id="Layer_1" data-name="Layer 1" xmlns="http://www.w3.org/2000/svg" xmlns:xlink="http://www.w3.org/1999/xlink" viewBox="0 0 34.04 21.82"><defs><style>.cls-1{fill:none;}.cls-2{clip-path:url(#clip-path);}.cls-3{fill:#fff;}</style><clipPath id="clip-path"><rect class="cls-1" width="34.04" height="21.82"/></clipPath></defs><title>icon</title><g class="cls-2"><path class="cls-3" d="M10.9,21.82a2.51,2.51,0,0,1-1.76-.73L.73,12.66a2.49,2.49,0,0,1,0-3.52L9.16.73a2.49,2.49,0,0,1,3.52,0l4.08,4.09L12.7,8.88a2.87,2.87,0,0,0-.38,3.6l.13.2.17-.17,5.94-5.9,1.23,1.24-6,5.94-.14.13.14.14,1.57,1.58.14.13.14-.13,5.88-5.87a2.51,2.51,0,0,1-.45,2.9l-4.2,4.18-.17.2-4.06,4a2.48,2.48,0,0,1-1.76.73"/><path class="cls-3" d="M23.12,21.82a2.48,2.48,0,0,1-1.76-.73L17.3,17l4.06-4.08a2.89,2.89,0,0,0,.38-3.6l-.13-.2-.17.17-5.92,5.91-1.3-1.3L20.2,8l.14-.14-.14-.14L18.7,6.2l-.14-.14-.14.14-5.9,5.86A2.51,2.51,0,0,1,13,9.15L17.17,5l.14-.14h0L21.38.73a2.49,2.49,0,0,1,3.52,0l8.41,8.43a2.49,2.49,0,0,1,0,3.52l-8.43,8.41a2.47,2.47,0,0,1-1.76.73"/></g></svg>